<svg width="708" height="581" viewBox="0 0 708 581" fill="none" xmlns="http://www.w3.org/2000/svg">
<g clip-path="url(#clip0_3944_7238)">
<mask id="mask0_3944_7238" style="mask-type:alpha" maskUnits="userSpaceOnUse" x="-110" y="66" width="934" height="540">
<rect width="591.267" height="485.206" transform="matrix(0.866044 0.499967 -0.866044 0.499967 311.03 66.9097)" fill="#D9D9D9" style="fill:#D9D9D9;fill:color(display-p3 0.8510 0.8510 0.8510);fill-opacity:1;"/>
</mask>
<g mask="url(#mask0_3944_7238)">
<g opacity="0.4">
<mask id="mask1_3944_7238" style="mask-type:alpha" maskUnits="userSpaceOnUse" x="-221" y="-9" width="1162" height="671">
<path d="M940.369 349.225L399.762 661.318L-220.175 303.429L320.433 -8.66413L940.369 349.225Z" fill="url(#paint0_radial_3944_7238)" style=""/>
</mask>
<g mask="url(#mask1_3944_7238)">
<line y1="-0.483322" x2="907.125" y2="-0.483322" transform="matrix(-0.866044 0.499967 -0.866044 -0.499967 430.138 -87.0273)" stroke="#726863" style="stroke:#726863;stroke:color(display-p3 0.4460 0.4070 0.3897);stroke-opacity:1;" stroke-width="0.966643"/>
<line y1="-0.483322" x2="907.125" y2="-0.483322" transform="matrix(-0.866044 0.499967 -0.866044 -0.499967 470.321 -63.8296)" stroke="#726863" style="stroke:#726863;stroke:color(display-p3 0.4460 0.4070 0.3897);stroke-opacity:1;" stroke-width="0.966643"/>
<line y1="-0.483322" x2="907.125" y2="-0.483322" transform="matrix(-0.866044 0.499967 -0.866044 -0.499967 510.505 -40.6318)" stroke="#726863" style="stroke:#726863;stroke:color(display-p3 0.4460 0.4070 0.3897);stroke-opacity:1;" stroke-width="0.966643"/>
<line y1="-0.483322" x2="907.125" y2="-0.483322" transform="matrix(-0.866044 0.499967 -0.866044 -0.499967 550.688 -17.4336)" stroke="#726863" style="stroke:#726863;stroke:color(display-p3 0.4460 0.4070 0.3897);stroke-opacity:1;" stroke-width="0.966643"/>
<line y1="-0.483322" x2="907.125" y2="-0.483322" transform="matrix(-0.866044 0.499967 -0.866044 -0.499967 590.872 5.76416)" stroke="#726863" style="stroke:#726863;stroke:color(display-p3 0.4460 0.4070 0.3897);stroke-opacity:1;" stroke-width="0.966643"/>
<line y1="-0.483322" x2="907.125" y2="-0.483322" transform="matrix(-0.866044 0.499967 -0.866044 -0.499967 631.056 28.9624)" stroke="#726863" style="stroke:#726863;stroke:color(display-p3 0.4460 0.4070 0.3897);stroke-opacity:1;" stroke-width="0.966643"/>
<line y1="-0.483322" x2="907.125" y2="-0.483322" transform="matrix(-0.866044 0.499967 -0.866044 -0.499967 671.239 52.1602)" stroke="#726863" style="stroke:#726863;stroke:color(display-p3 0.4460 0.4070 0.3897);stroke-opacity:1;" stroke-width="0.966643"/>
<line y1="-0.483322" x2="907.125" y2="-0.483322" transform="matrix(-0.866044 0.499967 -0.866044 -0.499967 711.423 75.3579)" stroke="#726863" style="stroke:#726863;stroke:color(display-p3 0.4460 0.4070 0.3897);stroke-opacity:1;" stroke-width="0.966643"/>
<line y1="-0.483322" x2="907.125" y2="-0.483322" transform="matrix(-0.866044 0.499967 -0.866044 -0.499967 751.605 98.5562)" stroke="#726863" style="stroke:#726863;stroke:color(display-p3 0.4460 0.4070 0.3897);stroke-opacity:1;" stroke-width="0.966643"/>
<line y1="-0.483322" x2="907.125" y2="-0.483322" transform="matrix(-0.866044 0.499967 -0.866044 -0.499967 791.789 121.754)" stroke="#726863" style="stroke:#726863;stroke:color(display-p3 0.4460 0.4070 0.3897);stroke-opacity:1;" stroke-width="0.966643"/>
<line y1="-0.483322" x2="907.125" y2="-0.483322" transform="matrix(-0.866044 0.499967 -0.866044 -0.499967 831.973 144.952)" stroke="#726863" style="stroke:#726863;stroke:color(display-p3 0.4460 0.4070 0.3897);stroke-opacity:1;" stroke-width="0.966643"/>
<line y1="-0.483322" x2="907.125" y2="-0.483322" transform="matrix(-0.866044 0.499967 -0.866044 -0.499967 872.156 168.15)" stroke="#726863" style="stroke:#726863;stroke:color(display-p3 0.4460 0.4070 0.3897);stroke-opacity:1;" stroke-width="0.966643"/>
<line y1="-0.483322" x2="907.125" y2="-0.483322" transform="matrix(-0.866044 0.499967 -0.866044 -0.499967 912.34 191.348)" stroke="#726863" style="stroke:#726863;stroke:color(display-p3 0.4460 0.4070 0.3897);stroke-opacity:1;" stroke-width="0.966643"/>
<line y1="-0.483322" x2="907.125" y2="-0.483322" transform="matrix(-0.866044 0.499967 -0.866044 -0.499967 952.523 214.545)" stroke="#726863" style="stroke:#726863;stroke:color(display-p3 0.4460 0.4070 0.3897);stroke-opacity:1;" stroke-width="0.966643"/>
<line y1="-0.483322" x2="907.125" y2="-0.483322" transform="matrix(-0.866044 0.499967 -0.866044 -0.499967 992.707 237.744)" stroke="#726863" style="stroke:#726863;stroke:color(display-p3 0.4460 0.4070 0.3897);stroke-opacity:1;" stroke-width="0.966643"/>
<line y1="-0.483322" x2="907.125" y2="-0.483322" transform="matrix(-0.866044 0.499967 -0.866044 -0.499967 1032.89 260.941)" stroke="#726863" style="stroke:#726863;stroke:color(display-p3 0.4460 0.4070 0.3897);stroke-opacity:1;" stroke-width="0.966643"/>
<line y1="-0.483322" x2="907.125" y2="-0.483322" transform="matrix(-0.866044 0.499967 -0.866044 -0.499967 1073.07 284.139)" stroke="#726863" style="stroke:#726863;stroke:color(display-p3 0.4460 0.4070 0.3897);stroke-opacity:1;" stroke-width="0.966643"/>
<line y1="-0.483322" x2="907.125" y2="-0.483322" transform="matrix(-0.866044 0.499967 -0.866044 -0.499967 1113.26 307.337)" stroke="#726863" style="stroke:#726863;stroke:color(display-p3 0.4460 0.4070 0.3897);stroke-opacity:1;" stroke-width="0.966643"/>
<line y1="-0.483322" x2="907.125" y2="-0.483322" transform="matrix(-0.866044 0.499967 -0.866044 -0.499967 1153.44 330.535)" stroke="#726863" style="stroke:#726863;stroke:color(display-p3 0.4460 0.4070 0.3897);stroke-opacity:1;" stroke-width="0.966643"/>
<line y1="-0.483322" x2="907.125" y2="-0.483322" transform="matrix(-0.866044 -0.499967 0.866045 -0.499967 1095.36 342.885)" stroke="#726863" style="stroke:#726863;stroke:color(display-p3 0.4460 0.4070 0.3897);stroke-opacity:1;" stroke-width="0.966643"/>
<line y1="-0.483322" x2="907.125" y2="-0.483322" transform="matrix(-0.866044 -0.499967 0.866045 -0.499967 1055.17 366.083)" stroke="#726863" style="stroke:#726863;stroke:color(display-p3 0.4460 0.4070 0.3897);stroke-opacity:1;" stroke-width="0.966643"/>
<line y1="-0.483322" x2="907.125" y2="-0.483322" transform="matrix(-0.866044 -0.499967 0.866045 -0.499967 1014.99 389.281)" stroke="#726863" style="stroke:#726863;stroke:color(display-p3 0.4460 0.4070 0.3897);stroke-opacity:1;" stroke-width="0.966643"/>
<line y1="-0.483322" x2="907.125" y2="-0.483322" transform="matrix(-0.866044 -0.499967 0.866045 -0.499967 974.805 412.479)" stroke="#726863" style="stroke:#726863;stroke:color(display-p3 0.4460 0.4070 0.3897);stroke-opacity:1;" stroke-width="0.966643"/>
<line y1="-0.483322" x2="907.125" y2="-0.483322" transform="matrix(-0.866044 -0.499967 0.866045 -0.499967 934.621 435.676)" stroke="#726863" style="stroke:#726863;stroke:color(display-p3 0.4460 0.4070 0.3897);stroke-opacity:1;" stroke-width="0.966643"/>
<line y1="-0.483322" x2="907.125" y2="-0.483322" transform="matrix(-0.866044 -0.499967 0.866045 -0.499967 894.438 458.875)" stroke="#726863" style="stroke:#726863;stroke:color(display-p3 0.4460 0.4070 0.3897);stroke-opacity:1;" stroke-width="0.966643"/>
<line y1="-0.483322" x2="907.125" y2="-0.483322" transform="matrix(-0.866044 -0.499967 0.866045 -0.499967 854.254 482.072)" stroke="#726863" style="stroke:#726863;stroke:color(display-p3 0.4460 0.4070 0.3897);stroke-opacity:1;" stroke-width="0.966643"/>
<line y1="-0.483322" x2="907.125" y2="-0.483322" transform="matrix(-0.866044 -0.499967 0.866045 -0.499967 814.07 505.271)" stroke="#726863" style="stroke:#726863;stroke:color(display-p3 0.4460 0.4070 0.3897);stroke-opacity:1;" stroke-width="0.966643"/>
<line y1="-0.483322" x2="907.125" y2="-0.483322" transform="matrix(-0.866044 -0.499967 0.866045 -0.499967 773.887 528.468)" stroke="#726863" style="stroke:#726863;stroke:color(display-p3 0.4460 0.4070 0.3897);stroke-opacity:1;" stroke-width="0.966643"/>
<line y1="-0.483322" x2="907.125" y2="-0.483322" transform="matrix(-0.866044 -0.499967 0.866045 -0.499967 733.704 551.666)" stroke="#726863" style="stroke:#726863;stroke:color(display-p3 0.4460 0.4070 0.3897);stroke-opacity:1;" stroke-width="0.966643"/>
<line y1="-0.483322" x2="907.125" y2="-0.483322" transform="matrix(-0.866044 -0.499967 0.866045 -0.499967 693.521 574.864)" stroke="#726863" style="stroke:#726863;stroke:color(display-p3 0.4460 0.4070 0.3897);stroke-opacity:1;" stroke-width="0.966643"/>
<line y1="-0.483322" x2="907.125" y2="-0.483322" transform="matrix(-0.866044 -0.499967 0.866045 -0.499967 653.337 598.062)" stroke="#726863" style="stroke:#726863;stroke:color(display-p3 0.4460 0.4070 0.3897);stroke-opacity:1;" stroke-width="0.966643"/>
<line y1="-0.483322" x2="907.125" y2="-0.483322" transform="matrix(-0.866044 -0.499967 0.866045 -0.499967 613.153 621.26)" stroke="#726863" style="stroke:#726863;stroke:color(display-p3 0.4460 0.4070 0.3897);stroke-opacity:1;" stroke-width="0.966643"/>
<line y1="-0.483322" x2="907.125" y2="-0.483322" transform="matrix(-0.866044 -0.499967 0.866045 -0.499967 572.97 644.458)" stroke="#726863" style="stroke:#726863;stroke:color(display-p3 0.4460 0.4070 0.3897);stroke-opacity:1;" stroke-width="0.966643"/>
<line y1="-0.483322" x2="907.125" y2="-0.483322" transform="matrix(-0.866044 -0.499967 0.866045 -0.499967 532.786 667.656)" stroke="#726863" style="stroke:#726863;stroke:color(display-p3 0.4460 0.4070 0.3897);stroke-opacity:1;" stroke-width="0.966643"/>
<line y1="-0.483322" x2="907.125" y2="-0.483322" transform="matrix(-0.866044 -0.499967 0.866045 -0.499967 492.603 690.854)" stroke="#726863" style="stroke:#726863;stroke:color(display-p3 0.4460 0.4070 0.3897);stroke-opacity:1;" stroke-width="0.966643"/>
<line y1="-0.483322" x2="907.125" y2="-0.483322" transform="matrix(-0.866044 -0.499967 0.866045 -0.499967 452.419 714.052)" stroke="#726863" style="stroke:#726863;stroke:color(display-p3 0.4460 0.4070 0.3897);stroke-opacity:1;" stroke-width="0.966643"/>
<line y1="-0.483322" x2="907.125" y2="-0.483322" transform="matrix(-0.866044 -0.499967 0.866045 -0.499967 412.235 737.25)" stroke="#726863" style="stroke:#726863;stroke:color(display-p3 0.4460 0.4070 0.3897);stroke-opacity:1;" stroke-width="0.966643"/>
<line y1="-0.483322" x2="907.125" y2="-0.483322" transform="matrix(-0.866044 -0.499967 0.866045 -0.499967 372.053 760.447)" stroke="#726863" style="stroke:#726863;stroke:color(display-p3 0.4460 0.4070 0.3897);stroke-opacity:1;" stroke-width="0.966643"/>
<line y1="-0.483322" x2="907.125" y2="-0.483322" transform="matrix(-0.866044 -0.499967 0.866045 -0.499967 331.869 783.646)" stroke="#726863" style="stroke:#726863;stroke:color(display-p3 0.4460 0.4070 0.3897);stroke-opacity:1;" stroke-width="0.966643"/>
<line y1="-0.483322" x2="907.125" y2="-0.483322" transform="matrix(-0.866044 -0.499967 0.866045 -0.499967 291.686 806.843)" stroke="#726863" style="stroke:#726863;stroke:color(display-p3 0.4460 0.4070 0.3897);stroke-opacity:1;" stroke-width="0.966643"/>
</g>
</g>
</g>
<circle cx="20.9478" cy="20.9478" r="20.4228" transform="matrix(0.866044 0.499967 0.866044 -0.499967 389.18 227.793)" fill="#A434E9" stroke="#A434E9" style="fill:#A434E9;fill:color(display-p3 0.6421 0.2042 0.9142);fill-opacity:1;stroke:#A434E9;stroke:color(display-p3 0.6421 0.2042 0.9142);stroke-opacity:1;" stroke-width="1.05"/>
<circle opacity="0.5" cx="116.646" cy="116.646" r="116.121" transform="matrix(0.866044 0.499967 -0.866044 0.499967 324.442 184.041)" fill="#3E194B" stroke="#A434E9" style="fill:#3E194B;fill:color(display-p3 0.2449 0.0963 0.2945);fill-opacity:1;stroke:#A434E9;stroke:color(display-p3 0.6421 0.2042 0.9142);stroke-opacity:1;" stroke-width="1.05"/>
<circle cx="116.646" cy="116.646" r="116.121" transform="matrix(0.866044 0.499967 -0.866044 0.499967 324.442 169.474)" fill="#3E194B" stroke="#A434E9" style="fill:#3E194B;fill:color(display-p3 0.2449 0.0963 0.2945);fill-opacity:1;stroke:#A434E9;stroke:color(display-p3 0.6421 0.2042 0.9142);stroke-opacity:1;" stroke-width="1.05"/>
<path opacity="0.6" d="M325.696 285.805L233.474 339.045" stroke="#A434E9" style="stroke:#A434E9;stroke:color(display-p3 0.6421 0.2042 0.9142);stroke-opacity:1;" stroke-width="2.1"/>
<line opacity="0.6" y1="-1.05" x2="210.919" y2="-1.05" transform="matrix(-1.06068 0.35353 -0.612386 -0.612333 436.309 248.829)" stroke="#A434E9" style="stroke:#A434E9;stroke:color(display-p3 0.6421 0.2042 0.9142);stroke-opacity:1;" stroke-width="2.1"/>
<line opacity="0.6" y1="-1.05" x2="210.919" y2="-1.05" transform="matrix(-1.18304 0.183001 -0.316994 -0.682968 449.211 266.814)" stroke="#A434E9" style="stroke:#A434E9;stroke:color(display-p3 0.6421 0.2042 0.9142);stroke-opacity:1;" stroke-width="2.1"/>
<line opacity="0.6" x1="453.61" y1="286.855" x2="195.283" y2="286.855" stroke="#A434E9" style="stroke:#A434E9;stroke:color(display-p3 0.6421 0.2042 0.9142);stroke-opacity:1;" stroke-width="2.1"/>
<line opacity="0.6" y1="-1.05" x2="210.919" y2="-1.05" transform="matrix(-1.18304 -0.183001 0.316994 -0.682968 449.208 305.412)" stroke="#A434E9" style="stroke:#A434E9;stroke:color(display-p3 0.6421 0.2042 0.9142);stroke-opacity:1;" stroke-width="2.1"/>
<line opacity="0.6" y1="-1.05" x2="210.919" y2="-1.05" transform="matrix(-1.06068 -0.35353 0.612386 -0.612332 436.303 323.396)" stroke="#A434E9" style="stroke:#A434E9;stroke:color(display-p3 0.6421 0.2042 0.9142);stroke-opacity:1;" stroke-width="2.1"/>
<line opacity="0.6" y1="-1.05" x2="210.919" y2="-1.05" transform="matrix(-0.866044 -0.499968 0.866045 -0.499967 415.775 338.838)" stroke="#A434E9" style="stroke:#A434E9;stroke:color(display-p3 0.6421 0.2042 0.9142);stroke-opacity:1;" stroke-width="2.1"/>
<line opacity="0.6" y1="-1.05" x2="210.919" y2="-1.05" transform="matrix(-0.612386 -0.612333 1.06068 -0.35353 389.023 350.688)" stroke="#A434E9" style="stroke:#A434E9;stroke:color(display-p3 0.6421 0.2042 0.9142);stroke-opacity:1;" stroke-width="2.1"/>
<line opacity="0.6" y1="-1.05" x2="210.919" y2="-1.05" transform="matrix(-0.316994 -0.682968 1.18304 -0.183 357.871 358.136)" stroke="#A434E9" style="stroke:#A434E9;stroke:color(display-p3 0.6421 0.2042 0.9142);stroke-opacity:1;" stroke-width="2.1"/>
<line opacity="0.6" x1="323.155" y1="360.677" x2="323.156" y2="211.544" stroke="#A434E9" style="stroke:#A434E9;stroke:color(display-p3 0.6421 0.2042 0.9142);stroke-opacity:1;" stroke-width="2.1"/>
<line opacity="0.6" y1="-1.05" x2="210.919" y2="-1.05" transform="matrix(0.316995 -0.682968 1.18304 0.183001 291.011 358.135)" stroke="#A434E9" style="stroke:#A434E9;stroke:color(display-p3 0.6421 0.2042 0.9142);stroke-opacity:1;" stroke-width="2.1"/>
<line opacity="0.6" y1="-1.05" x2="210.919" y2="-1.05" transform="matrix(0.612387 -0.612332 1.06068 0.353531 259.859 350.685)" stroke="#A434E9" style="stroke:#A434E9;stroke:color(display-p3 0.6421 0.2042 0.9142);stroke-opacity:1;" stroke-width="2.1"/>
<circle cx="93.4138" cy="93.4138" r="93.4138" transform="matrix(0.866044 0.499967 -0.866044 0.499967 324.443 192.705)" fill="#3E194B" style="fill:#3E194B;fill:color(display-p3 0.2449 0.0963 0.2945);fill-opacity:1;"/>
<path d="M403.26 230.53L396.427 254.442L405.242 249.207L420.427 240.441L425.32 243.265L392.42 262.259L387.822 259.604L394.655 235.692L385.84 240.928L370.655 249.694L365.762 246.869L398.662 227.876L403.26 230.53Z" fill="#A434E9" style="fill:#A434E9;fill:color(display-p3 0.6421 0.2042 0.9142);fill-opacity:1;"/>
<path d="M400.257 241.797C400.883 241.522 401.68 241.982 401.204 242.344L335.41 292.183L313.925 279.78L400.257 241.797Z" fill="#3E194B" stroke="#A434E9" style="fill:#3E194B;fill:color(display-p3 0.2449 0.0963 0.2945);fill-opacity:1;stroke:#A434E9;stroke:color(display-p3 0.6421 0.2042 0.9142);stroke-opacity:1;" stroke-width="1.10243"/>
<path d="M248.378 330.596C247.723 330.884 246.889 330.403 247.388 330.025L312.969 280.305L334.503 292.736L248.378 330.596Z" fill="#3E194B" stroke="#A434E9" style="fill:#3E194B;fill:color(display-p3 0.2449 0.0963 0.2945);fill-opacity:1;stroke:#A434E9;stroke:color(display-p3 0.6421 0.2042 0.9142);stroke-opacity:1;" stroke-width="1.05"/>
<g opacity="0.4">
<path d="M402.04 237.308L402.022 242.021C402.06 242.202 401.982 242.397 401.741 242.58L335.478 292.774L246.589 325.441L402.04 237.308Z" fill="#A434E9" style="fill:#A434E9;fill:color(display-p3 0.6421 0.2042 0.9142);fill-opacity:1;"/>
<path d="M248.767 330.892C247.788 331.322 246.6 330.853 246.585 330.283C246.555 329.191 246.589 325.441 246.589 325.441L335.478 292.774L248.767 330.892Z" fill="#A434E9" style="fill:#A434E9;fill:color(display-p3 0.6421 0.2042 0.9142);fill-opacity:1;"/>
</g>
<path d="M248.379 325.801C247.724 326.089 246.89 325.608 247.389 325.23L312.97 275.51L334.504 287.941L248.379 325.801Z" fill="#3E194B" stroke="#A434E9" style="fill:#3E194B;fill:color(display-p3 0.2449 0.0963 0.2945);fill-opacity:1;stroke:#A434E9;stroke:color(display-p3 0.6421 0.2042 0.9142);stroke-opacity:1;" stroke-width="1.05"/>
<path d="M399.85 236.693C401.102 236.142 402.697 237.062 401.743 237.785L335.48 287.979L312.904 274.946L399.85 236.693Z" fill="white" style="fill:white;fill-opacity:1;"/>
<path d="M254.145 206.437L254.144 145.005" stroke="#726863" style="stroke:#726863;stroke:color(display-p3 0.4460 0.4070 0.3897);stroke-opacity:1;" stroke-width="1.05" stroke-dasharray="2.1 2.1"/>
<path d="M317.042 214.423L317.042 181.388" stroke="#726863" style="stroke:#726863;stroke:color(display-p3 0.4460 0.4070 0.3897);stroke-opacity:1;" stroke-width="1.05" stroke-dasharray="2.1 2.1"/>
<path d="M297.002 141.303C296.273 140.568 296.129 139.296 296.736 139.085C300.809 137.67 303.417 133.386 303.416 126.892C303.415 115.541 295.446 101.739 285.616 96.0635C275.786 90.3881 267.818 94.9889 267.819 106.34C267.819 112.83 270.425 120.123 274.495 126.239C275.102 127.151 274.958 128.257 274.229 128.149C264.029 126.639 256.245 132.24 253.805 143.264C252.917 147.275 256.259 153.013 260.276 155.332L310.947 184.587C314.965 186.907 318.306 185.028 317.417 179.99C314.977 166.154 307.196 151.57 297.002 141.303Z" fill="#A434E9" style="fill:#A434E9;fill:color(display-p3 0.6421 0.2042 0.9142);fill-opacity:1;"/>
<path opacity="0.4" d="M273.51 103.613C283.089 109.144 290.855 122.593 290.856 133.653C290.857 139.981 288.316 144.157 284.347 145.536C283.478 145.838 283.661 147.642 284.738 148.728C294.79 158.852 302.463 173.234 304.869 186.876C305.677 191.456 302.645 193.282 298.842 191.087L248.171 161.832C244.368 159.636 241.336 154.309 242.143 150.661C244.548 139.792 252.225 134.268 262.282 135.757C263.359 135.916 263.542 134.322 262.674 133.018C258.707 127.056 256.168 119.951 256.168 113.626C256.167 102.566 263.932 98.083 273.51 103.613Z" fill="#3E194B" stroke="#A434E9" style="fill:#3E194B;fill:color(display-p3 0.2449 0.0963 0.2945);fill-opacity:1;stroke:#A434E9;stroke:color(display-p3 0.6421 0.2042 0.9142);stroke-opacity:1;" stroke-width="1.05"/>
<path d="M390.361 399.876L390.361 331.88" stroke="#726863" style="stroke:#726863;stroke:color(display-p3 0.4460 0.4070 0.3897);stroke-opacity:1;" stroke-width="1.05" stroke-dasharray="2.1 2.1"/>
<path d="M453.258 436.053L453.258 368.263" stroke="#726863" style="stroke:#726863;stroke:color(display-p3 0.4460 0.4070 0.3897);stroke-opacity:1;" stroke-width="1.05" stroke-dasharray="2.1 2.1"/>
<path d="M433.203 327.276C432.474 326.541 432.33 325.269 432.937 325.058C437.01 323.643 439.618 319.359 439.617 312.865C439.616 301.514 431.647 287.712 421.817 282.037C411.987 276.361 404.019 280.962 404.02 292.313C404.02 298.804 406.626 306.096 410.696 312.212C411.304 313.125 411.159 314.23 410.43 314.122C400.231 312.613 392.446 318.213 390.006 329.237C389.118 333.248 392.46 338.986 396.477 341.305L447.149 370.56C451.166 372.88 454.507 371.001 453.619 365.964C451.178 352.127 443.397 337.543 433.203 327.276Z" fill="#A434E9" style="fill:#A434E9;fill:color(display-p3 0.6421 0.2042 0.9142);fill-opacity:1;"/>
<path opacity="0.4" d="M409.711 289.586C419.289 295.117 427.055 308.566 427.056 319.626C427.057 325.954 424.516 330.13 420.547 331.509C419.679 331.811 419.861 333.615 420.938 334.701C430.99 344.825 438.663 359.207 441.069 372.849C441.877 377.429 438.845 379.255 435.042 377.06L384.371 347.805C380.568 345.61 377.536 340.282 378.343 336.634C380.749 325.765 388.425 320.241 398.482 321.73C399.559 321.889 399.743 320.296 398.874 318.991C394.908 313.03 392.368 305.924 392.368 299.599C392.367 288.539 400.132 284.056 409.711 289.586Z" fill="#3E194B" stroke="#A434E9" style="fill:#3E194B;fill:color(display-p3 0.2449 0.0963 0.2945);fill-opacity:1;stroke:#A434E9;stroke:color(display-p3 0.6421 0.2042 0.9142);stroke-opacity:1;" stroke-width="1.05"/>
<path d="M406.489 204.707L406.489 148.655" stroke="#726863" style="stroke:#726863;stroke:color(display-p3 0.4460 0.4070 0.3897);stroke-opacity:1;" stroke-width="1.05" stroke-dasharray="2.1 2.1"/>
<path d="M469.386 239.385L469.386 185.038" stroke="#726863" style="stroke:#726863;stroke:color(display-p3 0.4460 0.4070 0.3897);stroke-opacity:1;" stroke-width="1.05" stroke-dasharray="2.1 2.1"/>
<path d="M449.33 145.601C448.601 144.866 448.457 143.594 449.064 143.383C453.137 141.968 455.745 137.683 455.744 131.19C455.743 119.839 447.774 106.037 437.944 100.361C428.114 94.686 420.146 99.2867 420.147 110.637C420.147 117.128 422.753 124.421 426.823 130.537C427.43 131.449 427.286 132.555 426.557 132.447C416.357 130.937 408.573 136.538 406.133 147.562C405.245 151.573 408.587 157.311 412.604 159.63L463.276 188.885C467.293 191.205 470.634 189.325 469.746 184.288C467.305 170.452 459.524 155.868 449.33 145.601Z" fill="white" style="fill:white;fill-opacity:1;"/>
<path opacity="0.4" d="M425.839 107.911C435.417 113.441 443.183 126.891 443.184 137.951C443.185 144.279 440.644 148.455 436.675 149.834C435.807 150.136 435.989 151.94 437.066 153.025C447.118 163.15 454.791 177.532 457.197 191.173C458.005 195.754 454.973 197.58 451.17 195.385L400.499 166.13C396.696 163.934 393.664 158.607 394.471 154.959C396.876 144.09 404.553 138.566 414.61 140.055C415.687 140.214 415.871 138.62 415.002 137.315C411.036 131.354 408.496 124.249 408.496 117.924C408.495 106.863 416.26 102.381 425.839 107.911Z" fill="#3E194B" stroke="#A434E9" style="fill:#3E194B;fill:color(display-p3 0.2449 0.0963 0.2945);fill-opacity:1;stroke:#A434E9;stroke:color(display-p3 0.6421 0.2042 0.9142);stroke-opacity:1;" stroke-width="1.05"/>
<line x1="334.943" y1="287.979" x2="334.943" y2="292.702" stroke="#A434E9" style="stroke:#A434E9;stroke:color(display-p3 0.6421 0.2042 0.9142);stroke-opacity:1;" stroke-width="1.05"/>
<rect width="13.9306" height="13.9306" rx="6.96532" transform="matrix(0.866044 0.499967 -0.866044 0.499967 323.415 274.947)" fill="#A434E9" style="fill:#A434E9;fill:color(display-p3 0.6421 0.2042 0.9142);fill-opacity:1;"/>
</g>
<defs>
<radialGradient id="paint0_radial_3944_7238" cx="0" cy="0" r="1" gradientTransform="matrix(-187.684 108.35 -235.36 -135.874 354.426 334.966)" gradientUnits="userSpaceOnUse">
<stop offset="0.320924" stop-color="white" style="stop-color:white;stop-opacity:1;"/>
<stop offset="1" stop-color="white" stop-opacity="0" style="stop-color:none;stop-opacity:0;"/>
</radialGradient>
<clipPath id="clip0_3944_7238">
<rect width="708" height="581" fill="white" style="fill:white;fill-opacity:1;"/>
</clipPath>
</defs>
</svg>
