<svg width="708" height="581" viewBox="0 0 708 581" fill="none" xmlns="http://www.w3.org/2000/svg">
<g clip-path="url(#clip0_3944_18136)">
<mask id="mask0_3944_18136" style="mask-type:alpha" maskUnits="userSpaceOnUse" x="-102" y="26" width="934" height="540">
<rect width="591.267" height="485.206" transform="matrix(0.866044 0.499967 -0.866044 0.499967 319.054 26.9097)" fill="#D9D9D9" style="fill:#D9D9D9;fill:color(display-p3 0.8510 0.8510 0.8510);fill-opacity:1;"/>
</mask>
<g mask="url(#mask0_3944_18136)">
<g opacity="0.4">
<mask id="mask1_3944_18136" style="mask-type:alpha" maskUnits="userSpaceOnUse" x="-213" y="-49" width="1162" height="671">
<path d="M948.393 309.225L407.785 621.318L-212.151 263.429L328.456 -48.6641L948.393 309.225Z" fill="url(#paint0_radial_3944_18136)" style=""/>
</mask>
<g mask="url(#mask1_3944_18136)">
<line y1="-0.483322" x2="907.125" y2="-0.483322" transform="matrix(-0.866044 0.499967 -0.866044 -0.499967 438.161 -127.027)" stroke="#726863" style="stroke:#726863;stroke:color(display-p3 0.4460 0.4070 0.3897);stroke-opacity:1;" stroke-width="0.966643"/>
<line y1="-0.483322" x2="907.125" y2="-0.483322" transform="matrix(-0.866044 0.499967 -0.866044 -0.499967 478.345 -103.83)" stroke="#726863" style="stroke:#726863;stroke:color(display-p3 0.4460 0.4070 0.3897);stroke-opacity:1;" stroke-width="0.966643"/>
<line y1="-0.483322" x2="907.125" y2="-0.483322" transform="matrix(-0.866044 0.499967 -0.866044 -0.499967 518.528 -80.6318)" stroke="#726863" style="stroke:#726863;stroke:color(display-p3 0.4460 0.4070 0.3897);stroke-opacity:1;" stroke-width="0.966643"/>
<line y1="-0.483322" x2="907.125" y2="-0.483322" transform="matrix(-0.866044 0.499967 -0.866044 -0.499967 558.712 -57.4336)" stroke="#726863" style="stroke:#726863;stroke:color(display-p3 0.4460 0.4070 0.3897);stroke-opacity:1;" stroke-width="0.966643"/>
<line y1="-0.483322" x2="907.125" y2="-0.483322" transform="matrix(-0.866044 0.499967 -0.866044 -0.499967 598.896 -34.2358)" stroke="#726863" style="stroke:#726863;stroke:color(display-p3 0.4460 0.4070 0.3897);stroke-opacity:1;" stroke-width="0.966643"/>
<line y1="-0.483322" x2="907.125" y2="-0.483322" transform="matrix(-0.866044 0.499967 -0.866044 -0.499967 639.079 -11.0376)" stroke="#726863" style="stroke:#726863;stroke:color(display-p3 0.4460 0.4070 0.3897);stroke-opacity:1;" stroke-width="0.966643"/>
<line y1="-0.483322" x2="907.125" y2="-0.483322" transform="matrix(-0.866044 0.499967 -0.866044 -0.499967 679.263 12.1602)" stroke="#726863" style="stroke:#726863;stroke:color(display-p3 0.4460 0.4070 0.3897);stroke-opacity:1;" stroke-width="0.966643"/>
<line y1="-0.483322" x2="907.125" y2="-0.483322" transform="matrix(-0.866044 0.499967 -0.866044 -0.499967 719.446 35.3579)" stroke="#726863" style="stroke:#726863;stroke:color(display-p3 0.4460 0.4070 0.3897);stroke-opacity:1;" stroke-width="0.966643"/>
<line y1="-0.483322" x2="907.125" y2="-0.483322" transform="matrix(-0.866044 0.499967 -0.866044 -0.499967 759.629 58.5562)" stroke="#726863" style="stroke:#726863;stroke:color(display-p3 0.4460 0.4070 0.3897);stroke-opacity:1;" stroke-width="0.966643"/>
<line y1="-0.483322" x2="907.125" y2="-0.483322" transform="matrix(-0.866044 0.499967 -0.866044 -0.499967 799.812 81.7539)" stroke="#726863" style="stroke:#726863;stroke:color(display-p3 0.4460 0.4070 0.3897);stroke-opacity:1;" stroke-width="0.966643"/>
<line y1="-0.483322" x2="907.125" y2="-0.483322" transform="matrix(-0.866044 0.499967 -0.866044 -0.499967 839.996 104.952)" stroke="#726863" style="stroke:#726863;stroke:color(display-p3 0.4460 0.4070 0.3897);stroke-opacity:1;" stroke-width="0.966643"/>
<line y1="-0.483322" x2="907.125" y2="-0.483322" transform="matrix(-0.866044 0.499967 -0.866044 -0.499967 880.18 128.15)" stroke="#726863" style="stroke:#726863;stroke:color(display-p3 0.4460 0.4070 0.3897);stroke-opacity:1;" stroke-width="0.966643"/>
<line y1="-0.483322" x2="907.125" y2="-0.483322" transform="matrix(-0.866044 0.499967 -0.866044 -0.499967 920.363 151.348)" stroke="#726863" style="stroke:#726863;stroke:color(display-p3 0.4460 0.4070 0.3897);stroke-opacity:1;" stroke-width="0.966643"/>
<line y1="-0.483322" x2="907.125" y2="-0.483322" transform="matrix(-0.866044 0.499967 -0.866044 -0.499967 960.547 174.545)" stroke="#726863" style="stroke:#726863;stroke:color(display-p3 0.4460 0.4070 0.3897);stroke-opacity:1;" stroke-width="0.966643"/>
<line y1="-0.483322" x2="907.125" y2="-0.483322" transform="matrix(-0.866044 0.499967 -0.866044 -0.499967 1000.73 197.744)" stroke="#726863" style="stroke:#726863;stroke:color(display-p3 0.4460 0.4070 0.3897);stroke-opacity:1;" stroke-width="0.966643"/>
<line y1="-0.483322" x2="907.125" y2="-0.483322" transform="matrix(-0.866044 0.499967 -0.866044 -0.499967 1040.91 220.941)" stroke="#726863" style="stroke:#726863;stroke:color(display-p3 0.4460 0.4070 0.3897);stroke-opacity:1;" stroke-width="0.966643"/>
<line y1="-0.483322" x2="907.125" y2="-0.483322" transform="matrix(-0.866044 0.499967 -0.866044 -0.499967 1081.1 244.139)" stroke="#726863" style="stroke:#726863;stroke:color(display-p3 0.4460 0.4070 0.3897);stroke-opacity:1;" stroke-width="0.966643"/>
<line y1="-0.483322" x2="907.125" y2="-0.483322" transform="matrix(-0.866044 0.499967 -0.866044 -0.499967 1121.28 267.337)" stroke="#726863" style="stroke:#726863;stroke:color(display-p3 0.4460 0.4070 0.3897);stroke-opacity:1;" stroke-width="0.966643"/>
<line y1="-0.483322" x2="907.125" y2="-0.483322" transform="matrix(-0.866044 0.499967 -0.866044 -0.499967 1161.46 290.535)" stroke="#726863" style="stroke:#726863;stroke:color(display-p3 0.4460 0.4070 0.3897);stroke-opacity:1;" stroke-width="0.966643"/>
<line y1="-0.483322" x2="907.125" y2="-0.483322" transform="matrix(-0.866044 -0.499967 0.866045 -0.499967 1103.38 302.885)" stroke="#726863" style="stroke:#726863;stroke:color(display-p3 0.4460 0.4070 0.3897);stroke-opacity:1;" stroke-width="0.966643"/>
<line y1="-0.483322" x2="907.125" y2="-0.483322" transform="matrix(-0.866044 -0.499967 0.866045 -0.499967 1063.2 326.083)" stroke="#726863" style="stroke:#726863;stroke:color(display-p3 0.4460 0.4070 0.3897);stroke-opacity:1;" stroke-width="0.966643"/>
<line y1="-0.483322" x2="907.125" y2="-0.483322" transform="matrix(-0.866044 -0.499967 0.866045 -0.499967 1023.01 349.281)" stroke="#726863" style="stroke:#726863;stroke:color(display-p3 0.4460 0.4070 0.3897);stroke-opacity:1;" stroke-width="0.966643"/>
<line y1="-0.483322" x2="907.125" y2="-0.483322" transform="matrix(-0.866044 -0.499967 0.866045 -0.499967 982.828 372.479)" stroke="#726863" style="stroke:#726863;stroke:color(display-p3 0.4460 0.4070 0.3897);stroke-opacity:1;" stroke-width="0.966643"/>
<line y1="-0.483322" x2="907.125" y2="-0.483322" transform="matrix(-0.866044 -0.499967 0.866045 -0.499967 942.645 395.676)" stroke="#726863" style="stroke:#726863;stroke:color(display-p3 0.4460 0.4070 0.3897);stroke-opacity:1;" stroke-width="0.966643"/>
<line y1="-0.483322" x2="907.125" y2="-0.483322" transform="matrix(-0.866044 -0.499967 0.866045 -0.499967 902.461 418.875)" stroke="#726863" style="stroke:#726863;stroke:color(display-p3 0.4460 0.4070 0.3897);stroke-opacity:1;" stroke-width="0.966643"/>
<line y1="-0.483322" x2="907.125" y2="-0.483322" transform="matrix(-0.866044 -0.499967 0.866045 -0.499967 862.277 442.072)" stroke="#726863" style="stroke:#726863;stroke:color(display-p3 0.4460 0.4070 0.3897);stroke-opacity:1;" stroke-width="0.966643"/>
<line y1="-0.483322" x2="907.125" y2="-0.483322" transform="matrix(-0.866044 -0.499967 0.866045 -0.499967 822.094 465.271)" stroke="#726863" style="stroke:#726863;stroke:color(display-p3 0.4460 0.4070 0.3897);stroke-opacity:1;" stroke-width="0.966643"/>
<line y1="-0.483322" x2="907.125" y2="-0.483322" transform="matrix(-0.866044 -0.499967 0.866045 -0.499967 781.91 488.468)" stroke="#726863" style="stroke:#726863;stroke:color(display-p3 0.4460 0.4070 0.3897);stroke-opacity:1;" stroke-width="0.966643"/>
<line y1="-0.483322" x2="907.125" y2="-0.483322" transform="matrix(-0.866044 -0.499967 0.866045 -0.499967 741.728 511.666)" stroke="#726863" style="stroke:#726863;stroke:color(display-p3 0.4460 0.4070 0.3897);stroke-opacity:1;" stroke-width="0.966643"/>
<line y1="-0.483322" x2="907.125" y2="-0.483322" transform="matrix(-0.866044 -0.499967 0.866045 -0.499967 701.544 534.864)" stroke="#726863" style="stroke:#726863;stroke:color(display-p3 0.4460 0.4070 0.3897);stroke-opacity:1;" stroke-width="0.966643"/>
<line y1="-0.483322" x2="907.125" y2="-0.483322" transform="matrix(-0.866044 -0.499967 0.866045 -0.499967 661.36 558.062)" stroke="#726863" style="stroke:#726863;stroke:color(display-p3 0.4460 0.4070 0.3897);stroke-opacity:1;" stroke-width="0.966643"/>
<line y1="-0.483322" x2="907.125" y2="-0.483322" transform="matrix(-0.866044 -0.499967 0.866045 -0.499967 621.177 581.26)" stroke="#726863" style="stroke:#726863;stroke:color(display-p3 0.4460 0.4070 0.3897);stroke-opacity:1;" stroke-width="0.966643"/>
<line y1="-0.483322" x2="907.125" y2="-0.483322" transform="matrix(-0.866044 -0.499967 0.866045 -0.499967 580.993 604.458)" stroke="#726863" style="stroke:#726863;stroke:color(display-p3 0.4460 0.4070 0.3897);stroke-opacity:1;" stroke-width="0.966643"/>
<line y1="-0.483322" x2="907.125" y2="-0.483322" transform="matrix(-0.866044 -0.499967 0.866045 -0.499967 540.81 627.656)" stroke="#726863" style="stroke:#726863;stroke:color(display-p3 0.4460 0.4070 0.3897);stroke-opacity:1;" stroke-width="0.966643"/>
<line y1="-0.483322" x2="907.125" y2="-0.483322" transform="matrix(-0.866044 -0.499967 0.866045 -0.499967 500.626 650.854)" stroke="#726863" style="stroke:#726863;stroke:color(display-p3 0.4460 0.4070 0.3897);stroke-opacity:1;" stroke-width="0.966643"/>
<line y1="-0.483322" x2="907.125" y2="-0.483322" transform="matrix(-0.866044 -0.499967 0.866045 -0.499967 460.442 674.052)" stroke="#726863" style="stroke:#726863;stroke:color(display-p3 0.4460 0.4070 0.3897);stroke-opacity:1;" stroke-width="0.966643"/>
<line y1="-0.483322" x2="907.125" y2="-0.483322" transform="matrix(-0.866044 -0.499967 0.866045 -0.499967 420.259 697.25)" stroke="#726863" style="stroke:#726863;stroke:color(display-p3 0.4460 0.4070 0.3897);stroke-opacity:1;" stroke-width="0.966643"/>
<line y1="-0.483322" x2="907.125" y2="-0.483322" transform="matrix(-0.866044 -0.499967 0.866045 -0.499967 380.076 720.447)" stroke="#726863" style="stroke:#726863;stroke:color(display-p3 0.4460 0.4070 0.3897);stroke-opacity:1;" stroke-width="0.966643"/>
<line y1="-0.483322" x2="907.125" y2="-0.483322" transform="matrix(-0.866044 -0.499967 0.866045 -0.499967 339.893 743.646)" stroke="#726863" style="stroke:#726863;stroke:color(display-p3 0.4460 0.4070 0.3897);stroke-opacity:1;" stroke-width="0.966643"/>
<line y1="-0.483322" x2="907.125" y2="-0.483322" transform="matrix(-0.866044 -0.499967 0.866045 -0.499967 299.709 766.843)" stroke="#726863" style="stroke:#726863;stroke:color(display-p3 0.4460 0.4070 0.3897);stroke-opacity:1;" stroke-width="0.966643"/>
</g>
</g>
</g>
<path fill-rule="evenodd" clip-rule="evenodd" d="M494.174 311.659L489.866 309.149L489.825 309.172L494.846 312.106C494.642 311.951 494.418 311.801 494.174 311.659Z" fill="#09475C" stroke="#29A7D1" style="fill:#09475C;fill:color(display-p3 0.0353 0.2794 0.3608);fill-opacity:1;stroke:#29A7D1;stroke:color(display-p3 0.1602 0.6558 0.8209);stroke-opacity:1;" stroke-width="1.05"/>
<path d="M563.618 147.369L543.573 190.557L525.987 180.404L420.829 242.188C417.871 243.926 417.88 246.714 420.85 248.445C469.685 276.908 518.463 305.403 567.237 333.901L548.941 344.336L515.568 324.837C514.274 326.025 512.734 327.149 510.948 328.185L458.791 358.452C431.733 374.153 403.812 389.688 376.758 405.525C373.793 407.261 373.796 410.05 376.763 411.784L423.051 438.83L404.756 449.266L358.467 422.22C345.607 414.706 345.597 402.62 358.444 395.099L416.732 360.977C414.862 360.266 413.088 359.436 411.442 358.486L320.332 305.879C307.124 298.253 307.302 285.859 320.726 278.36L333.741 271.089C336.817 269.371 336.883 266.536 333.888 264.771L323.46 258.626C320.461 256.859 315.542 256.841 312.505 258.586L184.385 332.197L166.242 321.672L294.361 248.062C296.204 247.003 298.207 246.094 300.324 245.335L242.525 212.252C239.504 210.523 234.63 210.531 231.627 212.27L145.048 262.417L126.831 251.935L225.723 194.801C238.735 187.264 247.544 194.215 260.634 201.707C291.24 219.226 322.099 236.607 352.259 254.38C365.239 262.028 364.955 274.314 351.626 281.76L338.611 289.03C335.513 290.761 335.473 293.621 338.521 295.381L429.63 347.987C432.649 349.73 437.545 349.727 440.557 347.98L492.714 317.713C495.459 316.12 495.688 313.627 493.398 311.883C493.194 311.728 492.97 311.579 492.726 311.437L488.418 308.926L402.577 258.894C389.706 251.393 389.664 239.313 402.483 231.782L507.799 169.905L488.808 158.941L563.618 147.369Z" fill="#09475C" stroke="#29A7D1" style="fill:#09475C;fill:color(display-p3 0.0353 0.2794 0.3608);fill-opacity:1;stroke:#29A7D1;stroke:color(display-p3 0.1602 0.6558 0.8209);stroke-opacity:1;" stroke-width="1.05"/>
<path opacity="0.4" d="M563.876 146.882L543.573 190.557L525.987 180.404L420.829 242.188C417.871 243.926 417.881 246.714 420.85 248.445C465.727 274.601 567.485 317.072 567.485 317.072L567.501 333.759L548.942 344.336L515.568 324.837C514.274 326.025 512.734 327.149 510.948 328.185L458.791 358.452C431.733 374.153 403.812 389.687 376.758 405.525C373.793 407.261 373.796 410.05 376.763 411.784L423.312 422.158L423.312 438.658L404.756 449.265L358.467 422.22C352.336 418.637 349.125 414.015 348.837 409.344C348.52 404.219 348.836 391.375 348.836 391.375L416.732 360.976C414.862 360.266 413.088 359.435 411.442 358.485L320.332 305.879C313.695 302.047 310.438 297.011 310.543 291.997L310.532 275.121L333.741 271.089C336.817 269.371 336.883 266.535 333.888 264.77L323.46 258.626C320.461 256.859 315.542 256.841 312.505 258.586L184.386 332.197L166.012 321.504L165.988 304.918L294.361 248.062C296.204 247.003 298.207 246.094 300.324 245.335L242.525 212.252C239.504 210.523 234.63 210.531 231.627 212.27L145.048 262.417L126.562 251.757L126.544 235.199L225.425 193.042C238.437 185.506 247.545 194.215 260.634 201.707C291.24 219.226 322.099 236.607 352.259 254.38C365.239 262.028 364.955 274.314 351.626 281.76L338.611 289.03C335.513 290.761 335.473 293.621 338.521 295.381L429.63 347.987C432.649 349.73 437.545 349.727 440.557 347.98L492.714 317.713C495.459 316.12 495.688 313.626 493.398 311.883C493.194 311.728 492.97 311.579 492.726 311.436L488.418 308.926L402.577 258.894C396.246 255.204 393.019 250.406 392.9 245.587C392.777 240.609 393.016 227.418 393.016 227.418L507.8 169.905L488.235 158.609L488.217 142.246L525.918 144.807L563.876 130.586L563.876 146.882Z" fill="#29A7D1" stroke="#29A7D1" style="fill:#29A7D1;fill:color(display-p3 0.1602 0.6558 0.8209);fill-opacity:1;stroke:#29A7D1;stroke:color(display-p3 0.1602 0.6558 0.8209);stroke-opacity:1;" stroke-width="1.05"/>
<path d="M563.618 130.437L543.573 173.625L525.986 163.472L420.829 225.256C417.871 226.994 417.88 229.782 420.85 231.513C469.684 259.976 518.463 288.471 567.236 316.969L548.941 327.404L515.568 307.905C514.274 309.093 512.734 310.217 510.948 311.253L458.79 341.52C431.733 357.221 403.812 372.756 376.758 388.593C373.793 390.329 373.795 393.118 376.763 394.852L423.051 421.898L404.756 432.334L358.467 405.288C345.607 397.774 345.597 385.688 358.444 378.167L416.732 344.045C414.861 343.334 413.087 342.504 411.442 341.554L320.332 288.947C307.124 281.321 307.301 268.927 320.726 261.428L333.741 254.157C336.817 252.439 336.882 249.604 333.887 247.839L323.459 241.694C320.46 239.927 315.542 239.909 312.504 241.654L184.385 315.265L166.242 304.741L294.361 231.13C296.204 230.071 298.206 229.162 300.323 228.403L242.524 195.32C239.504 193.591 234.629 193.599 231.626 195.338L145.048 245.485L126.831 235.003L213.409 184.856C226.421 177.32 247.544 177.283 260.633 184.775C291.239 202.294 322.099 219.675 352.259 237.448C365.239 245.096 364.955 257.382 351.626 264.828L338.611 272.098C335.513 273.829 335.472 276.689 338.52 278.449L429.63 331.055C432.648 332.798 437.545 332.795 440.556 331.048L492.714 300.781C495.459 299.188 495.688 296.695 493.397 294.952C493.193 294.796 492.969 294.647 492.725 294.505L488.418 291.994L402.577 241.963C389.706 234.461 389.664 222.381 402.483 214.85L507.799 152.973L488.808 142.009L563.618 130.437Z" fill="#09475C" stroke="#29A7D1" style="fill:#09475C;fill:color(display-p3 0.0353 0.2794 0.3608);fill-opacity:1;stroke:#29A7D1;stroke:color(display-p3 0.1602 0.6558 0.8209);stroke-opacity:1;" stroke-width="1.05"/>
<path d="M554.857 135.706L540.638 166.342L501.79 143.915L554.857 135.706Z" fill="white" style="fill:white;fill-opacity:1;"/>
<line x1="184.394" y1="315.149" x2="184.394" y2="332.047" stroke="#29A7D1" style="stroke:#29A7D1;stroke:color(display-p3 0.1602 0.6558 0.8209);stroke-opacity:1;" stroke-width="1.05"/>
<line x1="165.885" y1="304.765" x2="165.885" y2="321.663" stroke="#29A7D1" style="stroke:#29A7D1;stroke:color(display-p3 0.1602 0.6558 0.8209);stroke-opacity:1;" stroke-width="1.05"/>
<line x1="144.917" y1="245.561" x2="144.917" y2="262.459" stroke="#29A7D1" style="stroke:#29A7D1;stroke:color(display-p3 0.1602 0.6558 0.8209);stroke-opacity:1;" stroke-width="1.05"/>
<line x1="126.427" y1="235.101" x2="126.427" y2="251.999" stroke="#29A7D1" style="stroke:#29A7D1;stroke:color(display-p3 0.1602 0.6558 0.8209);stroke-opacity:1;" stroke-width="1.05"/>
<line x1="404.731" y1="432.322" x2="404.731" y2="449.219" stroke="#29A7D1" style="stroke:#29A7D1;stroke:color(display-p3 0.1602 0.6558 0.8209);stroke-opacity:1;" stroke-width="1.05"/>
<line x1="423.418" y1="421.934" x2="423.418" y2="438.832" stroke="#29A7D1" style="stroke:#29A7D1;stroke:color(display-p3 0.1602 0.6558 0.8209);stroke-opacity:1;" stroke-width="1.05"/>
<line x1="548.849" y1="327.098" x2="548.849" y2="343.995" stroke="#29A7D1" style="stroke:#29A7D1;stroke:color(display-p3 0.1602 0.6558 0.8209);stroke-opacity:1;" stroke-width="1.05"/>
<line x1="567.613" y1="317.006" x2="567.613" y2="333.904" stroke="#29A7D1" style="stroke:#29A7D1;stroke:color(display-p3 0.1602 0.6558 0.8209);stroke-opacity:1;" stroke-width="1.05"/>
<line x1="543.658" y1="173.451" x2="543.658" y2="190.348" stroke="#29A7D1" style="stroke:#29A7D1;stroke:color(display-p3 0.1602 0.6558 0.8209);stroke-opacity:1;" stroke-width="1.05"/>
<path d="M564.491 146.929L563.44 147.284L563.531 130.43L564.491 130.032L564.491 146.929Z" fill="#29A7D1" style="fill:#29A7D1;fill:color(display-p3 0.1602 0.6558 0.8209);fill-opacity:1;"/>
<path d="M488.661 158.75L487.57 158.755L487.579 141.818L488.567 141.742L488.661 158.75Z" fill="#29A7D1" style="fill:#29A7D1;fill:color(display-p3 0.1602 0.6558 0.8209);fill-opacity:1;"/>
<path opacity="0.85" d="M438.386 188.551C438.386 182.752 442.457 180.401 447.479 183.301L549.733 242.343C554.755 245.243 558.827 252.294 558.827 258.093L558.829 304.791C558.829 310.59 554.758 312.94 549.736 310.041L447.481 250.999C442.459 248.099 438.388 241.048 438.388 235.249L438.386 188.551Z" fill="#201313" stroke="#928A85" style="fill:#201313;fill:color(display-p3 0.1254 0.0760 0.0760);fill-opacity:1;stroke:#928A85;stroke:color(display-p3 0.5745 0.5405 0.5235);stroke-opacity:1;" stroke-width="1.05" stroke-linejoin="round"/>
<path opacity="0.85" d="M438.386 188.551C438.386 182.752 442.457 180.401 447.479 183.301L549.733 242.343C554.755 245.243 558.827 252.294 558.827 258.093L558.829 304.791C558.829 310.59 554.758 312.94 549.736 310.041L447.481 250.999C442.459 248.099 438.388 241.048 438.388 235.249L438.386 188.551Z" fill="#201313" stroke="#928A85" style="fill:#201313;fill:color(display-p3 0.1254 0.0760 0.0760);fill-opacity:1;stroke:#928A85;stroke:color(display-p3 0.5745 0.5405 0.5235);stroke-opacity:1;" stroke-width="1.05" stroke-linejoin="round"/>
<mask id="mask2_3944_18136" style="mask-type:alpha" maskUnits="userSpaceOnUse" x="374" y="200" width="208" height="282">
<path d="M374.289 200.433L580.34 309.149L581.432 481.616L395.954 261.714L374.289 200.433Z" fill="#D9D9D9" style="fill:#D9D9D9;fill:color(display-p3 0.8510 0.8510 0.8510);fill-opacity:1;"/>
</mask>
<g mask="url(#mask2_3944_18136)">
<path fill-rule="evenodd" clip-rule="evenodd" d="M494.174 311.659L489.866 309.149L489.825 309.172L494.846 312.106C494.642 311.951 494.418 311.801 494.174 311.659Z" fill="#09475C" stroke="#29A7D1" style="fill:#09475C;fill:color(display-p3 0.0353 0.2794 0.3608);fill-opacity:1;stroke:#29A7D1;stroke:color(display-p3 0.1602 0.6558 0.8209);stroke-opacity:1;" stroke-width="1.05"/>
<path d="M563.618 147.369L543.573 190.557L525.987 180.404L420.829 242.188C417.871 243.926 417.88 246.714 420.85 248.445C469.685 276.908 518.463 305.403 567.237 333.901L548.941 344.336L515.568 324.837C514.274 326.025 512.734 327.149 510.948 328.185L458.791 358.452C431.733 374.153 403.812 389.688 376.758 405.525C373.793 407.261 373.796 410.05 376.763 411.784L423.051 438.83L404.756 449.266L358.467 422.22C345.607 414.706 345.597 402.62 358.444 395.099L416.732 360.977C414.862 360.266 413.088 359.436 411.442 358.486L320.332 305.879C307.124 298.253 307.302 285.859 320.726 278.36L333.741 271.089C336.817 269.371 336.883 266.536 333.888 264.771L323.46 258.626C320.461 256.859 315.542 256.841 312.505 258.586L184.385 332.197L166.242 321.672L294.361 248.062C296.204 247.003 298.207 246.094 300.324 245.335L242.525 212.252C239.504 210.523 234.63 210.531 231.627 212.27L145.048 262.417L126.831 251.935L225.723 194.801C238.735 187.264 247.544 194.215 260.634 201.707C291.24 219.226 322.099 236.607 352.259 254.38C365.239 262.028 364.955 274.314 351.626 281.76L338.611 289.03C335.513 290.761 335.473 293.621 338.521 295.381L429.63 347.987C432.649 349.73 437.545 349.727 440.557 347.98L492.714 317.713C495.459 316.12 495.688 313.627 493.398 311.883C493.194 311.728 492.97 311.579 492.726 311.437L488.418 308.926L402.577 258.894C389.706 251.393 389.664 239.313 402.483 231.782L507.799 169.905L488.808 158.941L563.618 147.369Z" fill="#09475C" stroke="#29A7D1" style="fill:#09475C;fill:color(display-p3 0.0353 0.2794 0.3608);fill-opacity:1;stroke:#29A7D1;stroke:color(display-p3 0.1602 0.6558 0.8209);stroke-opacity:1;" stroke-width="1.05"/>
<path opacity="0.4" d="M563.876 146.882L543.573 190.557L525.987 180.404L420.829 242.188C417.871 243.926 417.881 246.714 420.85 248.445C465.727 274.601 567.485 317.072 567.485 317.072L567.501 333.759L548.942 344.336L515.568 324.837C514.274 326.025 512.734 327.149 510.948 328.185L458.791 358.452C431.733 374.153 403.812 389.687 376.758 405.525C373.793 407.261 373.796 410.05 376.763 411.784L423.312 422.158L423.312 438.658L404.756 449.265L358.467 422.22C352.336 418.637 349.125 414.015 348.837 409.344C348.52 404.219 348.836 391.375 348.836 391.375L416.732 360.976C414.862 360.266 413.088 359.435 411.442 358.485L320.332 305.879C313.695 302.047 310.438 297.011 310.543 291.997L310.532 275.121L333.741 271.089C336.817 269.371 336.883 266.535 333.888 264.77L323.46 258.626C320.461 256.859 315.542 256.841 312.505 258.586L184.386 332.197L166.012 321.504L165.988 304.918L294.361 248.062C296.204 247.003 298.207 246.094 300.324 245.335L242.525 212.252C239.504 210.523 234.63 210.531 231.627 212.27L145.048 262.417L126.562 251.757L126.544 235.199L225.425 193.042C238.437 185.506 247.545 194.215 260.634 201.707C291.24 219.226 322.099 236.607 352.259 254.38C365.239 262.028 364.955 274.314 351.626 281.76L338.611 289.03C335.513 290.761 335.473 293.621 338.521 295.381L429.63 347.987C432.649 349.73 437.545 349.727 440.557 347.98L492.714 317.713C495.459 316.12 495.688 313.626 493.398 311.883C493.194 311.728 492.97 311.579 492.726 311.436L488.418 308.926L402.577 258.894C396.246 255.204 393.019 250.406 392.9 245.587C392.777 240.609 393.016 227.418 393.016 227.418L507.8 169.905L488.235 158.609L488.217 142.246L525.918 144.807L563.876 130.586L563.876 146.882Z" fill="#29A7D1" stroke="#29A7D1" style="fill:#29A7D1;fill:color(display-p3 0.1602 0.6558 0.8209);fill-opacity:1;stroke:#29A7D1;stroke:color(display-p3 0.1602 0.6558 0.8209);stroke-opacity:1;" stroke-width="1.05"/>
<path d="M563.618 130.437L543.573 173.625L525.986 163.472L420.829 225.256C417.871 226.994 417.88 229.782 420.85 231.513C469.684 259.976 518.463 288.471 567.236 316.969L548.941 327.404L515.568 307.905C514.274 309.093 512.734 310.217 510.948 311.253L458.79 341.52C431.733 357.221 403.812 372.756 376.758 388.593C373.793 390.329 373.795 393.118 376.763 394.852L423.051 421.898L404.756 432.334L358.467 405.288C345.607 397.774 345.597 385.688 358.444 378.167L416.732 344.045C414.861 343.334 413.087 342.504 411.442 341.554L320.332 288.947C307.124 281.321 307.301 268.927 320.726 261.428L333.741 254.157C336.817 252.439 336.882 249.604 333.887 247.839L323.459 241.694C320.46 239.927 315.542 239.909 312.504 241.654L184.385 315.265L166.242 304.741L294.361 231.13C296.204 230.071 298.206 229.162 300.323 228.403L242.524 195.32C239.504 193.591 234.629 193.599 231.626 195.338L145.048 245.485L126.831 235.003L213.409 184.856C226.421 177.32 247.544 177.283 260.633 184.775C291.239 202.294 322.099 219.675 352.259 237.448C365.239 245.096 364.955 257.382 351.626 264.828L338.611 272.098C335.513 273.829 335.472 276.689 338.52 278.449L429.63 331.055C432.648 332.798 437.545 332.795 440.556 331.048L492.714 300.781C495.459 299.188 495.688 296.695 493.397 294.952C493.193 294.796 492.969 294.647 492.725 294.505L488.418 291.994L402.577 241.963C389.706 234.461 389.664 222.381 402.483 214.85L507.799 152.973L488.808 142.009L563.618 130.437Z" fill="#09475C" stroke="#29A7D1" style="fill:#09475C;fill:color(display-p3 0.0353 0.2794 0.3608);fill-opacity:1;stroke:#29A7D1;stroke:color(display-p3 0.1602 0.6558 0.8209);stroke-opacity:1;" stroke-width="1.05"/>
<line x1="404.731" y1="432.322" x2="404.731" y2="449.219" stroke="#29A7D1" style="stroke:#29A7D1;stroke:color(display-p3 0.1602 0.6558 0.8209);stroke-opacity:1;" stroke-width="1.05"/>
<line x1="423.418" y1="421.934" x2="423.418" y2="438.832" stroke="#29A7D1" style="stroke:#29A7D1;stroke:color(display-p3 0.1602 0.6558 0.8209);stroke-opacity:1;" stroke-width="1.05"/>
<line x1="548.849" y1="327.098" x2="548.849" y2="343.995" stroke="#29A7D1" style="stroke:#29A7D1;stroke:color(display-p3 0.1602 0.6558 0.8209);stroke-opacity:1;" stroke-width="1.05"/>
<line x1="567.613" y1="317.006" x2="567.613" y2="333.904" stroke="#29A7D1" style="stroke:#29A7D1;stroke:color(display-p3 0.1602 0.6558 0.8209);stroke-opacity:1;" stroke-width="1.05"/>
</g>
<path opacity="0.85" d="M278.179 142.367C278.179 136.568 282.25 134.218 287.272 137.118L397.788 200.93L397.791 268.628L287.274 204.815C282.252 201.916 278.181 194.864 278.181 189.065L278.179 142.367Z" fill="#201313" stroke="#928A85" style="fill:#201313;fill:color(display-p3 0.1254 0.0760 0.0760);fill-opacity:1;stroke:#928A85;stroke:color(display-p3 0.5745 0.5405 0.5235);stroke-opacity:1;" stroke-width="1.05" stroke-linejoin="round"/>
<path opacity="0.85" d="M479.043 257.738C479.043 251.939 474.972 249.589 469.95 252.489L438.508 270.643L438.505 338.427L469.947 320.272C474.969 317.373 479.041 310.321 479.041 304.522L479.043 257.738Z" fill="#201313" stroke="#928A85" style="fill:#201313;fill:color(display-p3 0.1254 0.0760 0.0760);fill-opacity:1;stroke:#928A85;stroke:color(display-p3 0.5745 0.5405 0.5235);stroke-opacity:1;" stroke-width="1.05" stroke-linejoin="round"/>
<rect opacity="0.85" width="46.2496" height="67.7838" transform="matrix(-0.866007 0.500033 -3.7683e-05 1 397.965 201.056)" fill="#201313" stroke="#928A85" style="fill:#201313;fill:color(display-p3 0.1254 0.0760 0.0760);fill-opacity:1;stroke:#928A85;stroke:color(display-p3 0.5745 0.5405 0.5235);stroke-opacity:1;" stroke-width="1.05" stroke-linejoin="round"/>
<mask id="mask3_3944_18136" style="mask-type:alpha" maskUnits="userSpaceOnUse" x="48" y="132" width="359" height="225">
<path d="M203.144 132.881L406.572 263.903L365.197 287.053L305.597 277.694L221.368 356.997L48.4785 305.771L203.144 132.881Z" fill="#D9D9D9" style="fill:#D9D9D9;fill:color(display-p3 0.8510 0.8510 0.8510);fill-opacity:1;"/>
</mask>
<g mask="url(#mask3_3944_18136)">
<path d="M563.619 147.369L543.574 190.557L525.988 180.404L420.83 242.188C417.872 243.926 417.881 246.714 420.851 248.445C469.686 276.908 518.464 305.403 567.238 333.901L548.942 344.336L515.569 324.837C514.275 326.025 512.735 327.149 510.949 328.185L458.792 358.452C431.734 374.153 403.813 389.688 376.759 405.525C373.794 407.261 373.797 410.05 376.764 411.784L423.052 438.83L404.757 449.266L358.468 422.22C345.608 414.706 345.598 402.62 358.445 395.099L416.733 360.977C414.863 360.266 413.089 359.436 411.443 358.486L320.333 305.879C307.125 298.253 307.303 285.859 320.727 278.36L333.742 271.089C336.818 269.371 336.884 266.536 333.889 264.771L323.46 258.626C320.462 256.859 315.543 256.841 312.506 258.586L184.386 332.197L166.243 321.672L294.362 248.062C296.205 247.003 298.208 246.094 300.325 245.335L242.526 212.252C239.505 210.523 234.631 210.531 231.628 212.27L145.049 262.417L126.832 251.935L225.724 194.801C238.736 187.264 247.545 194.215 260.634 201.707C291.241 219.226 322.1 236.607 352.26 254.38C365.24 262.028 364.956 274.314 351.627 281.76L338.612 289.03C335.514 290.761 335.474 293.621 338.522 295.381L429.631 347.987C432.65 349.73 437.546 349.727 440.558 347.98L492.715 317.713C495.46 316.12 495.689 313.627 493.399 311.883C493.195 311.728 492.971 311.579 492.727 311.437L488.419 308.926L402.578 258.894C389.707 251.393 389.665 239.313 402.484 231.782L507.8 169.905L488.809 158.941L563.619 147.369Z" fill="#09475C" stroke="#29A7D1" style="fill:#09475C;fill:color(display-p3 0.0353 0.2794 0.3608);fill-opacity:1;stroke:#29A7D1;stroke:color(display-p3 0.1602 0.6558 0.8209);stroke-opacity:1;" stroke-width="1.05"/>
<path opacity="0.4" d="M563.877 146.882L543.574 190.557L525.988 180.404L420.83 242.188C417.872 243.926 417.882 246.714 420.851 248.445C465.728 274.601 567.486 317.072 567.486 317.072L567.502 333.759L548.943 344.336L515.569 324.837C514.275 326.025 512.735 327.149 510.949 328.185L458.792 358.452C431.734 374.153 403.813 389.687 376.759 405.525C373.794 407.261 373.797 410.05 376.764 411.784L423.313 422.158L423.313 438.658L404.757 449.265L358.468 422.22C352.337 418.637 349.126 414.015 348.838 409.344C348.521 404.219 348.837 391.375 348.837 391.375L416.733 360.976C414.863 360.266 413.089 359.435 411.443 358.485L320.333 305.879C313.696 302.047 310.439 297.011 310.544 291.997L310.533 275.121L333.742 271.089C336.818 269.371 336.884 266.535 333.889 264.77L323.461 258.626C320.462 256.859 315.543 256.841 312.506 258.586L184.387 332.197L166.013 321.504L165.989 304.918L294.362 248.062C296.205 247.003 298.208 246.094 300.325 245.335L242.526 212.252C239.505 210.523 234.631 210.531 231.628 212.27L145.049 262.417L126.563 251.757L126.545 235.199L225.426 193.042C238.438 185.506 247.546 194.215 260.635 201.707C291.241 219.226 322.1 236.607 352.26 254.38C365.24 262.028 364.956 274.314 351.627 281.76L338.612 289.03C335.514 290.761 335.474 293.621 338.522 295.381L429.631 347.987C432.65 349.73 437.546 349.727 440.558 347.98L492.715 317.713C495.46 316.12 495.689 313.626 493.399 311.883C493.195 311.728 492.971 311.579 492.727 311.436L488.419 308.926L402.578 258.894C396.247 255.204 393.02 250.406 392.901 245.587C392.778 240.609 393.017 227.418 393.017 227.418L507.8 169.905L488.236 158.609L488.218 142.246L525.919 144.807L563.877 130.586L563.877 146.882Z" fill="#29A7D1" stroke="#29A7D1" style="fill:#29A7D1;fill:color(display-p3 0.1602 0.6558 0.8209);fill-opacity:1;stroke:#29A7D1;stroke:color(display-p3 0.1602 0.6558 0.8209);stroke-opacity:1;" stroke-width="1.05"/>
<path d="M563.62 130.437L543.575 173.625L525.988 163.472L420.831 225.256C417.873 226.994 417.882 229.782 420.852 231.513C469.686 259.976 518.465 288.471 567.238 316.969L548.943 327.404L515.57 307.905C514.276 309.093 512.736 310.217 510.95 311.253L458.792 341.52C431.735 357.221 403.814 372.756 376.76 388.593C373.795 390.329 373.797 393.118 376.765 394.852L423.053 421.898L404.758 432.334L358.469 405.288C345.609 397.774 345.598 385.688 358.446 378.167L416.734 344.045C414.863 343.334 413.089 342.504 411.444 341.554L320.334 288.947C307.126 281.321 307.303 268.927 320.728 261.428L333.743 254.157C336.819 252.439 336.884 249.604 333.889 247.839L323.461 241.694C320.462 239.927 315.544 239.909 312.506 241.654L184.387 315.265L166.244 304.741L294.363 231.13C296.206 230.071 298.208 229.162 300.325 228.403L242.526 195.32C239.506 193.591 234.631 193.599 231.628 195.338L145.05 245.485L126.832 235.003L213.411 184.856C226.423 177.32 247.546 177.283 260.635 184.775C291.241 202.294 322.101 219.675 352.261 237.448C365.241 245.096 364.957 257.382 351.628 264.828L338.613 272.098C335.515 273.829 335.474 276.689 338.522 278.449L429.632 331.055C432.65 332.798 437.547 332.795 440.558 331.048L492.716 300.781C495.461 299.188 495.69 296.695 493.399 294.952C493.195 294.796 492.971 294.647 492.727 294.505L488.42 291.994L402.579 241.963C389.708 234.461 389.666 222.381 402.485 214.85L507.801 152.973L488.81 142.009L563.62 130.437Z" fill="#09475C" stroke="#29A7D1" style="fill:#09475C;fill:color(display-p3 0.0353 0.2794 0.3608);fill-opacity:1;stroke:#29A7D1;stroke:color(display-p3 0.1602 0.6558 0.8209);stroke-opacity:1;" stroke-width="1.05"/>
<line x1="184.395" y1="315.148" x2="184.395" y2="332.046" stroke="#29A7D1" style="stroke:#29A7D1;stroke:color(display-p3 0.1602 0.6558 0.8209);stroke-opacity:1;" stroke-width="1.05"/>
<line x1="165.886" y1="304.765" x2="165.886" y2="321.663" stroke="#29A7D1" style="stroke:#29A7D1;stroke:color(display-p3 0.1602 0.6558 0.8209);stroke-opacity:1;" stroke-width="1.05"/>
<path opacity="0.8" d="M166.02 321.275V304.915L184.376 315.31V331.873L166.02 321.275Z" fill="#29A7D1" style="fill:#29A7D1;fill:color(display-p3 0.1602 0.6558 0.8209);fill-opacity:1;"/>
<path opacity="0.8" d="M126.035 251.461V235.101L144.392 245.496V262.059L126.035 251.461Z" fill="#29A7D1" style="fill:#29A7D1;fill:color(display-p3 0.1602 0.6558 0.8209);fill-opacity:1;"/>
<line x1="144.918" y1="245.561" x2="144.918" y2="262.459" stroke="#29A7D1" style="stroke:#29A7D1;stroke:color(display-p3 0.1602 0.6558 0.8209);stroke-opacity:1;" stroke-width="1.05"/>
<line x1="126.429" y1="235.101" x2="126.429" y2="251.999" stroke="#29A7D1" style="stroke:#29A7D1;stroke:color(display-p3 0.1602 0.6558 0.8209);stroke-opacity:1;" stroke-width="1.05"/>
</g>
<path opacity="0.85" d="M290.001 227.635C290.001 221.836 285.93 219.485 280.908 222.385L226.665 253.705C221.643 256.605 217.571 263.657 217.571 269.456L217.569 316.239C217.569 322.038 221.64 324.389 226.662 321.489L280.905 290.169C285.927 287.269 289.999 280.218 289.999 274.419L290.001 227.635Z" fill="#201313" stroke="#928A85" style="fill:#201313;fill:color(display-p3 0.1254 0.0760 0.0760);fill-opacity:1;stroke:#928A85;stroke:color(display-p3 0.5745 0.5405 0.5235);stroke-opacity:1;" stroke-width="1.05" stroke-linejoin="round"/>
<path opacity="0.85" d="M216 177.261C216 171.462 211.929 169.112 206.907 172.012L184.304 185.062C179.282 187.962 175.211 195.014 175.211 200.813L175.209 247.597C175.209 253.396 179.28 255.746 184.302 252.846L206.904 239.795C211.926 236.896 215.998 229.844 215.998 224.045L216 177.261Z" fill="#201313" stroke="#928A85" style="fill:#201313;fill:color(display-p3 0.1254 0.0760 0.0760);fill-opacity:1;stroke:#928A85;stroke:color(display-p3 0.5745 0.5405 0.5235);stroke-opacity:1;" stroke-width="1.05" stroke-linejoin="round"/>
<rect opacity="0.85" width="92.9161" height="67.6978" transform="matrix(0.866007 0.500033 3.7683e-05 1 357.922 224.268)" fill="#201313" stroke="#928A85" style="fill:#201313;fill:color(display-p3 0.1254 0.0760 0.0760);fill-opacity:1;stroke:#928A85;stroke:color(display-p3 0.5745 0.5405 0.5235);stroke-opacity:1;" stroke-width="1.05" stroke-linejoin="round"/>
<mask id="mask4_3944_18136" style="mask-type:alpha" maskUnits="userSpaceOnUse" x="199" y="258" width="383" height="224">
<path d="M364.212 280.65L474.546 303.308L543.505 349.117L581.432 481.616L454.14 413.369L199.185 350.754L319.681 258.491L364.212 280.65Z" fill="#D9D9D9" style="fill:#D9D9D9;fill:color(display-p3 0.8510 0.8510 0.8510);fill-opacity:1;"/>
</mask>
<g mask="url(#mask4_3944_18136)">
<path fill-rule="evenodd" clip-rule="evenodd" d="M494.174 311.66L489.866 309.149L489.825 309.173L494.846 312.106C494.642 311.951 494.418 311.802 494.174 311.66Z" fill="#09475C" stroke="#29A7D1" style="fill:#09475C;fill:color(display-p3 0.0353 0.2794 0.3608);fill-opacity:1;stroke:#29A7D1;stroke:color(display-p3 0.1602 0.6558 0.8209);stroke-opacity:1;" stroke-width="1.05"/>
<path d="M563.618 147.369L543.573 190.557L525.987 180.404L420.829 242.188C417.871 243.926 417.88 246.714 420.85 248.445C469.685 276.908 518.463 305.403 567.237 333.901L548.941 344.336L515.568 324.837C514.274 326.025 512.734 327.149 510.948 328.185L458.791 358.452C431.733 374.153 403.812 389.688 376.758 405.525C373.793 407.261 373.796 410.05 376.763 411.784L423.051 438.83L404.756 449.266L358.467 422.22C345.607 414.706 345.597 402.62 358.444 395.099L416.732 360.977C414.862 360.266 413.088 359.436 411.442 358.486L320.332 305.879C307.124 298.253 307.302 285.859 320.726 278.36L333.741 271.089C336.817 269.371 336.883 266.536 333.888 264.771L323.46 258.626C320.461 256.859 315.542 256.841 312.505 258.586L184.385 332.197L166.242 321.672L294.361 248.062C296.204 247.003 298.207 246.094 300.324 245.335L242.525 212.252C239.504 210.523 234.63 210.531 231.627 212.27L145.048 262.417L126.831 251.935L225.723 194.801C238.735 187.264 247.544 194.215 260.634 201.707C291.24 219.226 322.099 236.607 352.259 254.38C365.239 262.028 364.955 274.314 351.626 281.76L338.611 289.03C335.513 290.761 335.473 293.621 338.521 295.381L429.63 347.987C432.649 349.73 437.545 349.727 440.557 347.98L492.714 317.713C495.459 316.12 495.688 313.627 493.398 311.883C493.194 311.728 492.97 311.579 492.726 311.437L488.418 308.926L402.577 258.894C389.706 251.393 389.664 239.313 402.483 231.782L507.799 169.905L488.808 158.941L563.618 147.369Z" fill="#09475C" stroke="#29A7D1" style="fill:#09475C;fill:color(display-p3 0.0353 0.2794 0.3608);fill-opacity:1;stroke:#29A7D1;stroke:color(display-p3 0.1602 0.6558 0.8209);stroke-opacity:1;" stroke-width="1.05"/>
<path opacity="0.4" d="M563.876 146.882L543.573 190.557L525.987 180.404L420.829 242.188C417.871 243.926 417.881 246.714 420.85 248.445C465.727 274.601 567.485 317.072 567.485 317.072L567.501 333.759L548.942 344.336L515.568 324.837C514.274 326.025 512.734 327.149 510.948 328.185L458.791 358.452C431.733 374.153 403.812 389.687 376.758 405.525C373.793 407.261 373.796 410.05 376.763 411.784L423.312 422.158L423.312 438.658L404.756 449.265L358.467 422.22C352.336 418.637 349.125 414.015 348.837 409.344C348.52 404.219 348.836 391.375 348.836 391.375L416.732 360.976C414.862 360.266 413.088 359.435 411.442 358.485L320.332 305.879C313.695 302.047 310.438 297.011 310.543 291.997L310.532 275.121L333.741 271.089C336.817 269.371 336.883 266.535 333.888 264.77L323.46 258.626C320.461 256.859 315.542 256.841 312.505 258.586L184.386 332.197L166.012 321.504L165.988 304.918L294.361 248.062C296.204 247.003 298.207 246.094 300.324 245.335L242.525 212.252C239.504 210.523 234.63 210.531 231.627 212.27L145.048 262.417L126.562 251.757L126.544 235.199L225.425 193.042C238.437 185.506 247.545 194.215 260.634 201.707C291.24 219.226 322.099 236.607 352.259 254.38C365.239 262.028 364.955 274.314 351.626 281.76L338.611 289.03C335.513 290.761 335.473 293.621 338.521 295.381L429.63 347.987C432.649 349.73 437.545 349.727 440.557 347.98L492.714 317.713C495.459 316.12 495.688 313.626 493.398 311.883C493.194 311.728 492.97 311.579 492.726 311.436L488.418 308.926L402.577 258.894C396.246 255.204 393.019 250.406 392.9 245.587C392.777 240.609 393.016 227.418 393.016 227.418L507.8 169.905L488.235 158.609L488.217 142.246L525.918 144.807L563.876 130.586L563.876 146.882Z" fill="#29A7D1" stroke="#29A7D1" style="fill:#29A7D1;fill:color(display-p3 0.1602 0.6558 0.8209);fill-opacity:1;stroke:#29A7D1;stroke:color(display-p3 0.1602 0.6558 0.8209);stroke-opacity:1;" stroke-width="1.05"/>
<path d="M563.618 130.437L543.573 173.625L525.986 163.473L420.829 225.257C417.871 226.995 417.88 229.782 420.85 231.513C469.684 259.977 518.463 288.471 567.236 316.969L548.941 327.405L515.568 307.906C514.274 309.093 512.734 310.218 510.948 311.254L458.79 341.52C431.733 357.221 403.812 372.756 376.758 388.594C373.793 390.329 373.795 393.118 376.763 394.852L423.051 421.898L404.756 432.334L358.467 405.289C345.607 397.775 345.597 385.689 358.444 378.168L416.732 344.045C414.861 343.335 413.087 342.504 411.442 341.554L320.332 288.948C307.124 281.322 307.301 268.927 320.726 261.428L333.741 254.158C336.817 252.439 336.882 249.604 333.887 247.839L323.459 241.695C320.46 239.928 315.542 239.91 312.504 241.655L184.385 315.265L166.242 304.741L294.361 231.13C296.204 230.072 298.206 229.163 300.323 228.403L242.524 195.32C239.504 193.591 234.629 193.6 231.626 195.339L145.048 245.486L126.831 235.004L213.409 184.857C226.421 177.32 247.544 177.284 260.633 184.776C291.239 202.295 322.099 219.675 352.259 237.449C365.239 245.097 364.955 257.383 351.626 264.828L338.611 272.099C335.513 273.829 335.472 276.69 338.52 278.45L429.63 331.055C432.648 332.798 437.545 332.795 440.556 331.048L492.714 300.782C495.459 299.189 495.688 296.695 493.397 294.952C493.193 294.797 492.969 294.647 492.725 294.505L488.418 291.995L402.577 241.963C389.706 234.461 389.664 222.382 402.483 214.85L507.799 152.973L488.808 142.01L563.618 130.437Z" fill="#09475C" stroke="#29A7D1" style="fill:#09475C;fill:color(display-p3 0.0353 0.2794 0.3608);fill-opacity:1;stroke:#29A7D1;stroke:color(display-p3 0.1602 0.6558 0.8209);stroke-opacity:1;" stroke-width="1.05"/>
<line x1="404.731" y1="432.322" x2="404.731" y2="449.22" stroke="#29A7D1" style="stroke:#29A7D1;stroke:color(display-p3 0.1602 0.6558 0.8209);stroke-opacity:1;" stroke-width="1.05"/>
<line x1="423.418" y1="421.934" x2="423.418" y2="438.832" stroke="#29A7D1" style="stroke:#29A7D1;stroke:color(display-p3 0.1602 0.6558 0.8209);stroke-opacity:1;" stroke-width="1.05"/>
<line x1="548.849" y1="327.098" x2="548.849" y2="343.995" stroke="#29A7D1" style="stroke:#29A7D1;stroke:color(display-p3 0.1602 0.6558 0.8209);stroke-opacity:1;" stroke-width="1.05"/>
<line x1="567.613" y1="317.006" x2="567.613" y2="333.904" stroke="#29A7D1" style="stroke:#29A7D1;stroke:color(display-p3 0.1602 0.6558 0.8209);stroke-opacity:1;" stroke-width="1.05"/>
</g>
<path opacity="0.85" d="M392.947 307.889C392.947 302.09 388.876 299.739 383.854 302.639L326.944 335.499C321.922 338.398 317.851 345.45 317.851 351.249L317.849 398.033C317.849 403.832 321.92 406.182 326.942 403.283L383.852 370.423C388.874 367.523 392.945 360.471 392.945 354.673L392.947 307.889Z" fill="#201313" stroke="#928A85" style="fill:#201313;fill:color(display-p3 0.1254 0.0760 0.0760);fill-opacity:1;stroke:#928A85;stroke:color(display-p3 0.5745 0.5405 0.5235);stroke-opacity:1;" stroke-width="1.05" stroke-linejoin="round"/>
<mask id="mask5_3944_18136" style="mask-type:alpha" maskUnits="userSpaceOnUse" x="330" y="351" width="110" height="137">
<path d="M330.085 413.133L337.727 377.13L394.785 351.77L395.087 396.451L439.284 406.559L409.572 487.029L330.085 413.133Z" fill="#D9D9D9" style="fill:#D9D9D9;fill:color(display-p3 0.8510 0.8510 0.8510);fill-opacity:1;"/>
</mask>
<g mask="url(#mask5_3944_18136)">
<path d="M563.618 147.368L543.573 190.556L525.987 180.404L420.829 242.188C417.871 243.926 417.88 246.713 420.85 248.444C469.685 276.908 518.463 305.402 567.237 333.9L548.941 344.336L515.568 324.837C514.274 326.024 512.734 327.149 510.948 328.185L458.791 358.451C431.733 374.152 403.812 389.687 376.758 405.525C373.793 407.26 373.796 410.049 376.763 411.783L423.051 438.829L404.756 449.265L358.467 422.22C345.607 414.706 345.597 402.62 358.444 395.099L416.732 360.976C414.862 360.266 413.088 359.435 411.442 358.485L320.332 305.879C307.124 298.253 307.302 285.858 320.726 278.359L333.741 271.089C336.817 269.37 336.883 266.535 333.888 264.77L323.46 258.626C320.461 256.859 315.542 256.841 312.505 258.586L184.385 332.196L166.242 321.672L294.361 248.061C296.204 247.003 298.207 246.094 300.324 245.334L242.525 212.251C239.504 210.522 234.63 210.53 231.627 212.27L145.048 262.417L126.831 251.935L225.723 194.801C238.735 187.264 247.544 194.215 260.634 201.707C291.24 219.226 322.099 236.606 352.259 254.38C365.239 262.028 364.955 274.314 351.626 281.759L338.611 289.03C335.513 290.76 335.473 293.621 338.521 295.381L429.63 347.986C432.649 349.729 437.545 349.726 440.557 347.979L492.714 317.713C495.459 316.12 495.688 313.626 493.398 311.883C493.194 311.728 492.97 311.578 492.726 311.436L488.418 308.926L402.577 258.894C389.706 251.392 389.664 239.313 402.483 231.781L507.799 169.904L488.808 158.941L563.618 147.368Z" fill="#09475C" stroke="#29A7D1" style="fill:#09475C;fill:color(display-p3 0.0353 0.2794 0.3608);fill-opacity:1;stroke:#29A7D1;stroke:color(display-p3 0.1602 0.6558 0.8209);stroke-opacity:1;" stroke-width="1.05"/>
<path opacity="0.4" d="M563.876 146.882L543.573 190.556L525.987 180.404L420.829 242.188C417.871 243.926 417.881 246.713 420.85 248.444C465.727 274.6 567.485 317.071 567.485 317.071L567.501 333.758L548.942 344.336L515.568 324.836C514.274 326.024 512.734 327.148 510.948 328.185L458.791 358.451C431.733 374.152 403.812 389.687 376.758 405.525C373.793 407.26 373.796 410.049 376.763 411.783L423.312 422.157L423.312 438.658L404.756 449.265L358.467 422.219C352.336 418.637 349.125 414.015 348.837 409.344C348.52 404.218 348.836 391.374 348.836 391.374L416.732 360.976C414.862 360.265 413.088 359.435 411.442 358.485L320.332 305.879C313.695 302.047 310.438 297.011 310.543 291.997L310.532 275.12L333.741 271.088C336.817 269.37 336.883 266.535 333.888 264.77L323.46 258.626C320.461 256.859 315.542 256.841 312.505 258.586L184.386 332.196L166.012 321.503L165.988 304.917L294.361 248.061C296.204 247.003 298.207 246.093 300.324 245.334L242.525 212.251C239.504 210.522 234.63 210.53 231.627 212.27L145.048 262.417L126.562 251.756L126.544 235.199L225.425 193.042C238.437 185.505 247.545 194.215 260.634 201.707C291.24 219.225 322.099 236.606 352.259 254.379C365.239 262.028 364.955 274.313 351.626 281.759L338.611 289.03C335.513 290.76 335.473 293.621 338.521 295.38L429.63 347.986C432.649 349.729 437.545 349.726 440.557 347.979L492.714 317.713C495.459 316.119 495.688 313.626 493.398 311.883C493.194 311.728 492.97 311.578 492.726 311.436L488.418 308.925L402.577 258.894C396.246 255.204 393.019 250.406 392.9 245.586C392.777 240.609 393.016 227.418 393.016 227.418L507.8 169.904L488.235 158.608L488.217 142.245L525.918 144.807L563.876 130.585L563.876 146.882Z" fill="#29A7D1" stroke="#29A7D1" style="fill:#29A7D1;fill:color(display-p3 0.1602 0.6558 0.8209);fill-opacity:1;stroke:#29A7D1;stroke:color(display-p3 0.1602 0.6558 0.8209);stroke-opacity:1;" stroke-width="1.05"/>
<path d="M563.618 130.437L543.573 173.625L525.986 163.472L420.829 225.256C417.871 226.994 417.88 229.782 420.85 231.513C469.684 259.976 518.463 288.471 567.236 316.969L548.941 327.404L515.568 307.905C514.274 309.093 512.734 310.217 510.948 311.253L458.79 341.52C431.733 357.221 403.812 372.756 376.758 388.593C373.793 390.329 373.795 393.118 376.763 394.852L423.051 421.898L404.756 432.334L358.467 405.288C345.607 397.774 345.597 385.688 358.444 378.167L416.732 344.045C414.861 343.334 413.087 342.504 411.442 341.554L320.332 288.947C307.124 281.321 307.301 268.927 320.726 261.428L333.741 254.157C336.817 252.439 336.882 249.604 333.887 247.839L323.459 241.694C320.46 239.927 315.542 239.909 312.504 241.654L184.385 315.265L166.242 304.741L294.361 231.13C296.204 230.071 298.206 229.162 300.323 228.403L242.524 195.32C239.504 193.591 234.629 193.599 231.626 195.338L145.048 245.485L126.831 235.003L213.409 184.856C226.421 177.32 247.544 177.283 260.633 184.775C291.239 202.294 322.099 219.675 352.259 237.448C365.239 245.096 364.955 257.382 351.626 264.828L338.611 272.098C335.513 273.829 335.472 276.689 338.52 278.449L429.63 331.055C432.648 332.798 437.545 332.795 440.556 331.048L492.714 300.781C495.459 299.188 495.688 296.695 493.397 294.952C493.193 294.796 492.969 294.647 492.725 294.505L488.418 291.994L402.577 241.963C389.706 234.461 389.664 222.381 402.483 214.85L507.799 152.973L488.808 142.009L563.618 130.437Z" fill="#09475C" stroke="#29A7D1" style="fill:#09475C;fill:color(display-p3 0.0353 0.2794 0.3608);fill-opacity:1;stroke:#29A7D1;stroke:color(display-p3 0.1602 0.6558 0.8209);stroke-opacity:1;" stroke-width="1.05"/>
<line x1="404.731" y1="432.322" x2="404.731" y2="449.219" stroke="#29A7D1" style="stroke:#29A7D1;stroke:color(display-p3 0.1602 0.6558 0.8209);stroke-opacity:1;" stroke-width="1.05"/>
<line x1="423.418" y1="421.934" x2="423.418" y2="438.831" stroke="#29A7D1" style="stroke:#29A7D1;stroke:color(display-p3 0.1602 0.6558 0.8209);stroke-opacity:1;" stroke-width="1.05"/>
</g>
<path opacity="0.8" d="M422.893 438.294V421.934L404.536 432.329V448.893L422.893 438.294Z" fill="#29A7D1" style="fill:#29A7D1;fill:color(display-p3 0.1602 0.6558 0.8209);fill-opacity:1;"/>
<path opacity="0.8" d="M567.088 333.397V317.037L548.731 327.432V343.996L567.088 333.397Z" fill="#29A7D1" style="fill:#29A7D1;fill:color(display-p3 0.1602 0.6558 0.8209);fill-opacity:1;"/>
</g>
<defs>
<radialGradient id="paint0_radial_3944_18136" cx="0" cy="0" r="1" gradientTransform="matrix(-187.684 108.35 -235.36 -135.874 362.449 294.966)" gradientUnits="userSpaceOnUse">
<stop offset="0.320924" stop-color="white" style="stop-color:white;stop-opacity:1;"/>
<stop offset="1" stop-color="white" stop-opacity="0" style="stop-color:none;stop-opacity:0;"/>
</radialGradient>
<clipPath id="clip0_3944_18136">
<rect width="708" height="581" fill="white" style="fill:white;fill-opacity:1;"/>
</clipPath>
</defs>
</svg>
