<svg width="743" height="690" viewBox="0 0 743 690" fill="none" xmlns="http://www.w3.org/2000/svg">
<g clip-path="url(#clip0_1925_10135)">
<mask id="mask0_1925_10135" style="mask-type:alpha" maskUnits="userSpaceOnUse" x="18" y="27" width="726" height="624">
<path d="M743.072 27.0479H18.0723V650.048H743.072V27.0479Z" fill="#D9D9D9"/>
</mask>
<g mask="url(#mask0_1925_10135)">
<g opacity="0.4">
<mask id="mask1_1925_10135" style="mask-type:alpha" maskUnits="userSpaceOnUse" x="-29" y="-64" width="1227" height="755">
<g opacity="0.4">
<path d="M1197.07 -63.952V690.048H-28.9268V-63.9521L1197.07 -63.952Z" fill="url(#paint0_radial_1925_10135)"/>
</g>
</mask>
<g mask="url(#mask1_1925_10135)">
<path d="M28.5742 147.048V1132.4" stroke="#726863"/>
<path d="M76.5742 147.048V1132.4" stroke="#726863"/>
<path d="M124.574 147.048V1132.4" stroke="#726863"/>
<path d="M172.574 147.048V1132.4" stroke="#726863"/>
<path d="M220.574 147.048V1132.4" stroke="#726863"/>
<path d="M268.574 147.048V1132.4" stroke="#726863"/>
<path d="M316.574 147.048V1132.4" stroke="#726863"/>
<path d="M364.574 147.048V1132.4" stroke="#726863"/>
<path d="M412.574 147.048V1132.4" stroke="#726863"/>
<path d="M460.574 147.048V1132.4" stroke="#726863"/>
<path d="M508.574 147.048V1132.4" stroke="#726863"/>
<path d="M556.574 147.048V1132.4" stroke="#726863"/>
<path d="M604.574 147.048V1132.4" stroke="#726863"/>
<path d="M652.574 147.048V1132.4" stroke="#726863"/>
<path d="M700.574 147.048V1132.4" stroke="#726863"/>
<path d="M897.898 191.5H-87.4512" stroke="#726863"/>
<path d="M897.898 239.5H-87.4512" stroke="#726863"/>
<path d="M897.898 287.5H-87.4512" stroke="#726863"/>
<path d="M897.898 335.5H-87.4512" stroke="#726863"/>
<path d="M897.898 383.5H-87.4512" stroke="#726863"/>
<path d="M897.898 431.5H-87.4512" stroke="#726863"/>
<path d="M897.898 479.5H-87.4512" stroke="#726863"/>
<path d="M897.898 527.5H-87.4512" stroke="#726863"/>
<path d="M897.898 575.5H-87.4512" stroke="#726863"/>
<path d="M897.898 623.5H-87.4512" stroke="#726863"/>
</g>
</g>
</g>
<mask id="mask2_1925_10135" style="mask-type:alpha" maskUnits="userSpaceOnUse" x="0" y="0" width="742" height="690">
<path d="M741.548 0.399414H0.547852V689.399H741.548V0.399414Z" fill="url(#paint1_linear_1925_10135)"/>
</mask>
<g mask="url(#mask2_1925_10135)">
<path d="M834.841 191.941H652.426C599.552 191.941 556.69 234.804 556.69 287.678V356.245" stroke="#F74239" stroke-width="4" stroke-linecap="round" stroke-linejoin="round"/>
<path d="M317.159 243.048C317.159 256.303 306.414 267.048 293.159 267.048" stroke="#F74239" stroke-width="4"/>
<path d="M317.159 339.048C317.159 352.303 306.414 363.048 293.159 363.048" stroke="#F74239" stroke-width="4"/>
<path d="M269.159 387.048C269.159 373.793 279.904 363.048 293.159 363.048" stroke="#F74239" stroke-width="4"/>
<path d="M317.159 339.048C317.159 325.793 306.414 315.048 293.159 315.048" stroke="#F74239" stroke-width="4"/>
<path d="M269.159 291.048C269.159 277.793 279.904 267.048 293.159 267.048" stroke="#F74239" stroke-width="4"/>
<path d="M293.159 315.048C279.904 315.048 269.159 304.303 269.159 291.048" stroke="#F74239" stroke-width="4"/>
<path d="M317.159 434.048C317.159 420.793 306.414 410.048 293.159 410.048" stroke="#F74239" stroke-width="4"/>
<path d="M293.159 410.048C279.904 410.048 269.159 399.303 269.159 386.048" stroke="#F74239" stroke-width="4"/>
<path opacity="0.1" d="M748.311 529.507C828.116 529.507 892.811 464.812 892.811 385.007C892.811 305.202 828.116 240.507 748.311 240.507C668.505 240.507 603.811 305.202 603.811 385.007C603.811 464.812 668.505 529.507 748.311 529.507Z" fill="#F74239"/>
<path d="M460.831 383.007H556.422" stroke="#F74239" stroke-width="4" stroke-linecap="round" stroke-dasharray="4 8"/>
<path d="M508.831 192H648.249" stroke="#F74239" stroke-width="4" stroke-linecap="round" stroke-dasharray="4 8"/>
<path d="M316.627 432.029V527.803" stroke="#F74239" stroke-width="4" stroke-linecap="round" stroke-dasharray="4 8"/>
<path d="M460 385V622.832" stroke="#F74239" stroke-width="4" stroke-linecap="round" stroke-dasharray="4 8"/>
<path d="M556.422 373.007V393.007" stroke="#F74239" stroke-width="4" stroke-linecap="round"/>
<path d="M470 624.048H450" stroke="#F74239" stroke-width="4" stroke-linecap="round"/>
<path d="M124 230.141V250.141" stroke="#F74239" stroke-width="4" stroke-linecap="round"/>
<path d="M364.548 422V442" stroke="#F74239" stroke-width="4" stroke-linecap="round"/>
<path d="M445.831 382.507C445.831 374.499 452.323 368.007 460.331 368.007C468.339 368.007 474.831 374.499 474.831 382.507C474.831 390.515 468.339 397.007 460.331 397.007C452.323 397.007 445.831 390.515 445.831 382.507Z" fill="#F74239" fill-opacity="0.12"/>
<path d="M460.331 373.007C455.084 373.007 450.831 377.26 450.831 382.507C450.831 387.754 455.084 392.007 460.331 392.007C465.578 392.007 469.831 387.754 469.831 382.507C469.831 377.26 465.578 373.007 460.331 373.007Z" fill="white" stroke="#F74239" stroke-width="4"/>
<path d="M524.013 195.742L511.993 207.763C509.649 210.106 505.851 210.106 503.507 207.763L491.487 195.742C489.143 193.399 489.143 189.6 491.487 187.257L503.507 175.236C505.851 172.893 509.649 172.893 511.993 175.236L524.013 187.257C526.357 189.6 526.357 193.399 524.013 195.742Z" fill="#F74239" fill-opacity="0.12"/>
<path d="M519.771 192.914L509.164 203.521C508.383 204.302 507.117 204.302 506.336 203.521L495.729 192.914C494.948 192.133 494.948 190.867 495.729 190.086L506.336 179.479C507.117 178.698 508.383 178.698 509.164 179.479L519.771 190.086C520.552 190.867 520.552 192.133 519.771 192.914Z" fill="white" stroke="#F74239" stroke-width="4"/>
</g>
<mask id="mask3_1925_10135" style="mask-type:luminance" maskUnits="userSpaceOnUse" x="268" y="191" width="96" height="96">
<path d="M364 191H268V287H364V191Z" fill="white"/>
</mask>
<g mask="url(#mask3_1925_10135)">
<path opacity="0.1" d="M316 287C342.51 287 364 265.51 364 239C364 212.49 342.51 191 316 191C289.49 191 268 212.49 268 239C268 265.51 289.49 287 316 287Z" fill="#F74239"/>
</g>
<path d="M124.152 239.743H365.038L412.108 239.403C438.532 239.212 460.054 260.579 460.054 287.004C460.054 287.852 460.742 288.54 461.59 288.54H777.4" stroke="#F74239" stroke-width="4" stroke-linecap="round"/>
<path d="M556.498 624.127H772.575" stroke="#F74239" stroke-width="4" stroke-linecap="round" stroke-linejoin="round"/>
<path d="M220.836 528.222H604.636L755.561 377.297" stroke="#F74239" stroke-width="4" stroke-linecap="round"/>
<path d="M364.384 431.996H173.843C173.843 379.018 130.323 336.071 77.3447 336.071" stroke="#F74239" stroke-width="4" stroke-linecap="round" stroke-linejoin="round"/>
<path d="M302.5 239.399C302.5 231.391 308.992 224.899 317 224.899C325.008 224.899 331.5 231.391 331.5 239.399C331.5 247.407 325.008 253.899 317 253.899C308.992 253.899 302.5 247.407 302.5 239.399Z" fill="#F74239" fill-opacity="0.12"/>
<path d="M305.5 239.399C305.5 233.048 310.649 227.899 317 227.899C323.351 227.899 328.5 233.048 328.5 239.399C328.5 245.75 323.351 250.899 317 250.899C310.649 250.899 305.5 245.75 305.5 239.399Z" fill="#F74239"/>
<path d="M231.597 519.269C231.597 515.42 227.43 513.014 224.097 514.938L207.939 524.267C204.606 526.191 204.606 531.003 207.939 532.927L224.097 542.256C227.43 544.18 231.597 541.775 231.597 537.926V519.269Z" fill="#F74239" fill-opacity="0.12"/>
<path d="M226.647 519.19L210.588 528.462L226.647 537.734V519.19Z" fill="white" stroke="#F74239" stroke-width="4"/>
<path d="M567.258 615.173C567.258 611.324 563.092 608.919 559.758 610.843L543.601 620.172C540.267 622.096 540.267 626.908 543.601 628.832L559.758 638.161C563.092 640.085 567.258 637.68 567.258 633.831V615.173Z" fill="#F74239" fill-opacity="0.12"/>
<path d="M562.308 615.095L546.249 624.367L562.308 633.638V615.095Z" fill="white" stroke="#F74239" stroke-width="4"/>
<path d="M84.7612 326.446C84.7612 322.597 80.5945 320.191 77.2612 322.116L61.1035 331.444C57.7702 333.369 57.7702 338.18 61.1035 340.104L77.2612 349.433C80.5945 351.358 84.7611 348.952 84.7611 345.103L84.7612 326.446Z" fill="#F74239" fill-opacity="0.12"/>
<path d="M81.8101 326.367C81.8101 324.828 80.1434 323.866 78.8101 324.635L62.751 333.907C61.4176 334.677 61.4176 336.601 62.751 337.371L78.8101 346.643C80.1434 347.413 81.8101 346.45 81.8101 344.911V326.367Z" fill="#F74239"/>
<path d="M710.761 183.046C710.761 179.197 706.594 176.792 703.261 178.716L687.103 188.045C683.77 189.969 683.77 194.781 687.103 196.705L703.261 206.034C706.594 207.958 710.761 205.553 710.761 201.704V183.046Z" fill="#F74239" fill-opacity="0.12"/>
<path d="M707.811 182.968C707.811 181.428 706.144 180.466 704.811 181.236L688.751 190.508C687.418 191.277 687.418 193.202 688.751 193.972L704.811 203.243C706.144 204.013 707.811 203.051 707.811 201.511V182.968Z" fill="#F74239"/>
<path opacity="0.1" d="M484.088 493.656H436.912C431.389 493.656 426.912 498.133 426.912 503.656V551.539C426.912 557.062 431.389 561.539 436.912 561.539H484.088C489.61 561.539 494.088 557.062 494.088 551.539V503.656C494.088 498.133 489.61 493.656 484.088 493.656Z" fill="#F74239"/>
<path d="M474.5 518.597L474.5 535.597C474.5 538.911 471.814 541.597 468.5 541.597L451.5 541.597C448.186 541.597 445.5 538.911 445.5 535.597L445.5 518.597C445.5 515.283 448.186 512.597 451.5 512.597L468.5 512.597C471.814 512.597 474.5 515.283 474.5 518.597Z" fill="#F74239" fill-opacity="0.12"/>
<path d="M469.5 519.597L469.5 534.597C469.5 535.702 468.605 536.597 467.5 536.597L452.5 536.597C451.395 536.597 450.5 535.702 450.5 534.597L450.5 519.597C450.5 518.493 451.395 517.597 452.5 517.597L467.5 517.597C468.605 517.597 469.5 518.493 469.5 519.597Z" fill="white" stroke="#F74239" stroke-width="4"/>
<path opacity="0.1" d="M212.973 424.276L179.615 390.918C175.71 387.013 169.378 387.013 165.473 390.918L131.615 424.776C127.71 428.682 127.71 435.013 131.615 438.918L164.973 472.276C168.878 476.182 175.21 476.182 179.115 472.276L212.973 438.418C216.878 434.513 216.878 428.182 212.973 424.276Z" fill="#F74239"/>
<path d="M662 623.627C662 615.619 668.492 609.127 676.5 609.127C684.508 609.127 691 615.619 691 623.627C691 631.635 684.508 638.127 676.5 638.127C668.492 638.127 662 631.635 662 623.627Z" fill="#F74239" fill-opacity="0.12"/>
<path d="M676.5 614.127C671.253 614.127 667 618.38 667 623.627C667 628.874 671.253 633.127 676.5 633.127C681.747 633.127 686 628.874 686 623.627C686 618.38 681.747 614.127 676.5 614.127Z" fill="white" stroke="#F74239" stroke-width="4"/>
</g>
<defs>
<radialGradient id="paint0_radial_1925_10135" cx="0" cy="0" r="1" gradientUnits="userSpaceOnUse" gradientTransform="translate(411.072 353.048) rotate(90.0998) scale(287 466.661)">
<stop stop-color="white"/>
<stop offset="1" stop-opacity="0"/>
</radialGradient>
<linearGradient id="paint1_linear_1925_10135" x1="741.548" y1="84" x2="689.548" y2="84" gradientUnits="userSpaceOnUse">
<stop stop-opacity="0"/>
<stop offset="1" stop-color="white"/>
</linearGradient>
<clipPath id="clip0_1925_10135">
<rect width="743" height="690" fill="white"/>
</clipPath>
</defs>
</svg>
