<svg width="130" height="148" viewBox="0 0 130 148" fill="none" xmlns="http://www.w3.org/2000/svg">
<g clip-path="url(#clip0_1380_99)">
<path d="M21.3729 54.332V50.78C21.3729 49.2013 20.5031 47.9022 19.0534 47.3102L18.8546 47.228L19.0534 47.154C20.4037 46.6689 21.2072 45.3862 21.2072 43.7171V40.6667C21.2072 37.3531 19.3434 35.6758 15.6736 35.6758H9.05469V59.3229H15.8392C19.509 59.3229 21.3729 57.6456 21.3729 54.332ZM13.9671 39.7869H15.1682C15.8807 39.7869 16.2866 40.2884 16.2866 41.16V43.75C16.2866 44.6216 15.8807 45.1231 15.1682 45.1231H13.9671V39.7869ZM13.9671 55.2036V49.1684H15.1351C15.9884 49.1684 16.4191 49.6618 16.4191 50.6402V53.8222C16.4191 54.7102 16.0132 55.1953 15.2676 55.1953H13.9671V55.2036Z" fill="black" style="fill:black;fill-opacity:1;"/>
<path d="M34.8668 35.6758H29.8882V54.036C29.8882 54.9487 29.4823 55.4749 28.7698 55.4749C28.0574 55.4749 27.6184 54.9322 27.6184 54.036V35.6758H22.6729V54.1676C22.6729 57.4647 25.0669 59.5942 28.7698 59.5942C32.4728 59.5942 34.8668 57.4647 34.8668 54.1676V35.6758Z" fill="black" style="fill:black;fill-opacity:1;"/>
<path d="M41.908 59.5859C45.6109 59.5859 48.005 57.4563 48.005 54.1592V51.0759C48.005 49.0779 47.392 47.9267 45.7352 46.8332L41.8252 44.0787C41.2287 43.6347 41.0216 43.199 41.0216 42.385V40.9625C41.0216 39.7703 41.6098 39.5236 42.1068 39.5236C42.7861 39.5236 43.1589 40.0334 43.1589 40.9625V43.7827H47.9719V40.831C47.9719 37.4352 45.7766 35.4043 42.1068 35.4043C38.437 35.4043 36.043 37.5339 36.043 40.831V43.3881C36.043 45.3861 36.656 46.5372 38.3128 47.6307L42.2228 50.4181C42.753 50.8127 43.0263 51.1827 43.0263 52.1119V54.0359C43.0263 54.965 42.6536 55.4747 41.9743 55.4747C41.4772 55.4747 40.8891 55.2281 40.8891 54.0359V50.7881H36.043V54.1674C36.043 57.5632 38.2382 59.5941 41.908 59.5941V59.5859Z" fill="black" style="fill:black;fill-opacity:1;"/>
<path d="M54.334 35.6758H49.3223V59.3229H54.334V35.6758Z" fill="black" style="fill:black;fill-opacity:1;"/>
<path d="M64.3745 59.3229H68.7567V35.6758H64.2751V41.8589L64.3496 47.0142H63.9023L61.268 35.6758H56.281V59.3229H60.7627V51.446L60.6964 46.488H61.1354L64.3745 59.3229Z" fill="black" style="fill:black;fill-opacity:1;"/>
<path d="M80.1722 40.05V35.6758H70.7119V59.3229H80.1722V54.9404H75.5911V49.3082H79.6006V44.9258H75.5911V40.05H80.1722Z" fill="black" style="fill:black;fill-opacity:1;"/>
<path d="M92.9786 51.0846C92.9786 49.0866 92.3656 47.9355 90.7088 46.842L86.7988 44.0875C86.2024 43.6435 85.9952 43.2078 85.9952 42.3938V40.9713C85.9952 39.7791 86.5834 39.5324 87.0805 39.5324C87.7597 39.5324 88.1325 40.0422 88.1325 40.9713V43.7915H92.9455V40.8398C92.9455 37.444 90.7502 35.4131 87.0805 35.4131C83.4107 35.4131 81.0166 37.5426 81.0166 40.8398V43.3969C81.0166 45.3949 81.6296 46.546 83.2864 47.6395L87.1964 50.4269C87.7266 50.8215 88 51.1915 88 52.1206V54.0446C88 54.9738 87.6272 55.4835 86.9479 55.4835C86.4509 55.4835 85.8627 55.2369 85.8627 54.0446V50.7969H81.0166V54.1762C81.0166 57.572 83.2118 59.6029 86.8816 59.6029C90.5514 59.6029 92.9786 57.4733 92.9786 54.1762V51.0846Z" fill="black" style="fill:black;fill-opacity:1;"/>
<path d="M106.076 51.0846C106.076 49.0866 105.463 47.9355 103.806 46.842L99.8965 44.0875C99.3 43.6435 99.0929 43.2078 99.0929 42.3938V40.9713C99.0929 39.7791 99.6811 39.5324 100.178 39.5324C100.857 39.5324 101.23 40.0422 101.23 40.9713V43.7915H106.043V40.8398C106.043 37.444 103.848 35.4131 100.178 35.4131C96.5083 35.4131 94.1143 37.5426 94.1143 40.8398V43.3969C94.1143 45.3949 94.7273 46.546 96.3841 47.6395L100.294 50.4269C100.824 50.8215 101.098 51.1915 101.098 52.1206V54.0446C101.098 54.9738 100.725 55.4835 100.046 55.4835C99.5485 55.4835 98.9604 55.2369 98.9604 54.0446V50.7969H94.1143V54.1762C94.1143 57.572 96.3095 59.6029 99.9793 59.6029C103.649 59.6029 106.076 57.4733 106.076 54.1762V51.0846Z" fill="black" style="fill:black;fill-opacity:1;"/>
<path d="M21.696 32.6417V8.98633H16.7091V18.2446H14.0748V8.98633H9.05469V32.6417H14.0748V22.6188H16.7091V32.6417H21.696Z" fill="black" style="fill:black;fill-opacity:1;"/>
<path d="M30.8663 27.8651L31.3634 32.6422H36.2095L32.987 8.99512H25.7137L22.5244 32.6422H27.2048L27.6687 27.8651H30.8663ZM28.3977 19.8813L28.8782 15.3345H29.6238L30.1456 19.8813L30.6344 23.9513H27.909L28.3977 19.8813Z" fill="black" style="fill:black;fill-opacity:1;"/>
<path d="M49.7285 32.6418C49.4386 31.7785 49.3972 30.5945 49.3972 29.542V24.4032C49.3972 22.6847 48.6599 21.4514 47.3096 20.9334L47.1025 20.8512L47.3096 20.7772C48.6599 20.292 49.4635 19.0094 49.4635 17.3403V13.9938C49.4635 10.6803 47.5996 9.00293 43.9298 9.00293H37.1121V32.65H42.0576V23.03H43.1925C43.7641 23.03 44.4434 23.2849 44.4434 24.5018V29.7065C44.4434 30.652 44.4848 31.8278 44.783 32.6418H49.7285ZM43.3665 18.812H42.0659V13.2127H43.3665C44.0706 13.2127 44.4848 13.7307 44.4848 14.5858V17.4389C44.4848 18.3105 44.0789 18.812 43.3665 18.812Z" fill="black" style="fill:black;fill-opacity:1;"/>
<path d="M58.5261 8.9873L57.4989 19.7913L57.0597 25.0782H56.5379L56.0989 19.7913L55.0303 8.9873H49.9688L53.5143 32.6426H59.8101L63.397 8.9873H58.5261Z" fill="black" style="fill:black;fill-opacity:1;"/>
<path d="M84.5049 32.6428H89.4422C89.1522 31.7795 89.1108 30.5955 89.1108 29.543V24.4041C89.1108 22.6857 88.3735 21.4524 87.0232 20.9343L86.8244 20.8521L87.0315 20.7781C88.3818 20.293 89.1854 19.0104 89.1854 17.3412V13.9948C89.1854 10.6812 87.3215 9.00391 83.6517 9.00391H76.834V32.651H81.7795V23.031H82.9144C83.486 23.031 84.1653 23.2859 84.1653 24.5028V29.7075C84.1653 30.653 84.2067 31.8288 84.5049 32.6428ZM83.0801 18.813H81.7795V13.2137H83.0801C83.7842 13.2137 84.1984 13.7317 84.1984 14.5868V17.4399C84.1984 18.3115 83.7925 18.813 83.0801 18.813Z" fill="black" style="fill:black;fill-opacity:1;"/>
<path d="M103.276 14.414C103.276 11.0675 100.973 8.9873 97.2784 8.9873H90.9246V32.6344H97.2784C100.981 32.6344 103.276 30.5542 103.276 27.2077V14.4057V14.414ZM98.2973 27.0515C98.2973 27.9149 97.8831 28.4246 97.179 28.4246H95.8784V13.2053H97.179C97.8831 13.2053 98.2973 13.7233 98.2973 14.5784V27.0515Z" fill="black" style="fill:black;fill-opacity:1;"/>
<path d="M70.6042 27.8651L71.1095 32.6422H75.9556L72.7332 8.99512H65.4599L62.2705 32.6422H66.951L67.4149 27.8651H70.6042ZM68.1356 19.8813L68.6161 15.3344H69.3616L69.8835 19.8813L70.3722 23.9513H67.6468L68.1356 19.8813Z" fill="black" style="fill:black;fill-opacity:1;"/>
<path d="M16.7337 86.0129H21.6709C21.381 85.1496 21.3395 83.9656 21.3395 82.9131V77.7742C21.3395 76.0558 20.6023 74.8225 19.252 74.3045L19.0532 74.2222L19.2603 74.1482C20.6106 73.6631 21.4141 72.3805 21.4141 70.7114V67.3649C21.4141 64.0514 19.5502 62.374 15.8804 62.374H9.06274V86.0211H14.0083V76.4011H15.1432C15.7147 76.4011 16.394 76.656 16.394 77.8729V83.0776C16.394 84.0231 16.4355 85.1989 16.7337 86.0129ZM15.3088 72.1831H14.0083V66.5838H15.3088C16.013 66.5838 16.4272 67.1018 16.4272 67.9569V70.81C16.4272 71.6816 16.0213 72.1831 15.3088 72.1831Z" fill="black" style="fill:black;fill-opacity:1;"/>
<path d="M32.5472 66.7399V62.3574H23.0869V86.0128H32.5472V81.6303H27.9662V75.9899H31.9756V71.6156H27.9662V66.7399H32.5472Z" fill="black" style="fill:black;fill-opacity:1;"/>
<path d="M52.3956 62.3574H47.3838V86.0045H52.3956V62.3574Z" fill="black" style="fill:black;fill-opacity:1;"/>
<path d="M63.7367 66.7399V62.3574H54.2764V86.0128H63.7367V81.6303H59.1557V75.9899H63.1651V71.6157H59.1557V66.7399H63.7367Z" fill="black" style="fill:black;fill-opacity:1;"/>
<path d="M78.9627 62.3574L77.9852 76.0228H77.2396L77.2314 75.9488L76.3036 62.3574H72.261L71.3912 76.0228H70.6373L70.2563 71.1059L69.6267 62.3574H64.4492L67.1498 86.0128H72.8409L73.7769 73.3094H74.4479L75.3509 86.0128H81.042L83.7425 62.3574H78.9627Z" fill="black" style="fill:black;fill-opacity:1;"/>
<path d="M41.7841 62.3574L40.7569 73.1614L40.3096 78.4483H39.796L39.3487 73.1614L38.2883 62.3574H33.2185L36.7723 86.0128H43.0681L46.6468 62.3574H41.7841Z" fill="black" style="fill:black;fill-opacity:1;"/>
<path d="M64.9959 148L64.0929 147.556C39.1499 135.387 22.9548 124.509 13.1218 113.319C4.05085 103 0 92.1464 0 78.1276V0H130V78.1276C130 92.1464 125.957 103 116.878 113.319C107.045 124.509 90.8418 135.387 65.9071 147.556L65.0042 148H64.9959ZM4.10884 4.07822V78.1276C4.10884 91.0858 7.8449 101.117 16.2117 110.638C25.5643 121.27 41.0801 131.712 64.9959 143.453C88.9116 131.712 104.436 121.27 113.78 110.638C122.155 101.117 125.883 91.094 125.883 78.1276V4.07822H4.10055H4.10884Z" fill="black" style="fill:black;fill-opacity:1;"/>
</g>
<defs>
<clipPath id="clip0_1380_99">
<rect width="130" height="148" fill="white" style="fill:white;fill-opacity:1;"/>
</clipPath>
</defs>
</svg>
